# 3ds Max Wavefront OBJ Exporter v0.97b - (c)2007 guruware
# File Created: 09.02.2014 00:14:39

#
# object Candle
#

v  0.5755 0.4904 -0.0000
v  0.9034 -0.0030 -0.0000
v  0.4517 -0.0030 -0.7824
v  0.2878 0.4904 -0.4984
v  -0.4517 -0.0030 -0.7824
v  -0.2878 0.4904 -0.4984
v  -0.9034 -0.0030 -0.0000
v  -0.5755 0.4904 -0.0000
v  -0.4517 -0.0030 0.7824
v  -0.2878 0.4904 0.4984
v  0.4517 -0.0030 0.7824
v  0.2878 0.4904 0.4984
v  0.2519 1.2590 -0.4363
v  0.5038 1.2590 -0.0000
v  -0.2519 1.2590 -0.4363
v  -0.5038 1.2590 -0.0000
v  -0.2519 1.2590 0.4363
v  0.2519 1.2590 0.4363
v  -0.0000 1.1411 -0.0000
# 19 vertices

vn 0.9327 0.3607 -0.0000
vn 0.8329 0.5535 -0.0000
vn 0.4164 0.5535 -0.7213
vn 0.4663 0.3607 -0.8077
vn -0.4164 0.5535 -0.7213
vn -0.4663 0.3607 -0.8077
vn -0.8329 0.5535 -0.0000
vn -0.9327 0.3607 -0.0000
vn -0.4164 0.5535 0.7213
vn -0.4663 0.3607 0.8077
vn 0.4164 0.5535 0.7213
vn 0.4663 0.3607 0.8077
vn 0.4978 0.0930 -0.8623
vn 0.9957 0.0930 -0.0000
vn -0.4978 0.0930 -0.8623
vn -0.9957 0.0930 0.0000
vn -0.4978 0.0930 0.8623
vn 0.4978 0.0930 0.8623
vn -0.2260 0.9653 0.1305
vn 0.0000 0.9653 0.2610
vn 0.2260 0.9653 0.1305
vn 0.2260 0.9653 -0.1305
vn 0.0000 0.9653 -0.2610
vn -0.2260 0.9653 -0.1305
# 24 vertex normals

vt 0.4237 0.3815 0.3185
vt 0.4095 0.3815 0.5000
vt 0.4095 0.3801 0.5590
vt 0.4237 0.3801 0.3561
vt 0.4095 0.3783 0.5590
vt 0.4237 0.3783 0.3561
vt 0.4095 0.3762 0.5000
vt 0.4237 0.3762 0.3185
vt 0.4095 0.3740 0.5590
vt 0.4237 0.3740 0.3561
vt 0.4095 0.3722 0.5590
vt 0.4237 0.3722 0.3561
vt 0.4095 0.3711 0.5000
vt 0.4237 0.3711 0.3185
vt 0.4644 0.3801 0.3117
vt 0.4644 0.3815 0.2788
vt 0.4644 0.3782 0.3117
vt 0.4644 0.3760 0.2788
vt 0.4644 0.3737 0.3117
vt 0.4644 0.3719 0.3117
vt 0.4644 0.3711 0.2788
vt 0.4279 0.3747 0.0000
vt 0.4278 0.3753 0.0000
vt 0.4273 0.3749 0.0000
vt 0.4272 0.3755 0.0000
vt 0.4267 0.3752 0.0000
vt 0.4268 0.3745 0.0000
vt 0.4274 0.3743 0.0000
# 28 texture coords

g Candle
s 8
f 1/1/1 2/2/2 3/3/3 4/4/4 
f 4/4/4 3/3/3 5/5/5 6/6/6 
f 6/6/6 5/5/5 7/7/7 8/8/8 
f 8/8/8 7/7/7 9/9/9 10/10/10 
f 10/10/10 9/9/9 11/11/11 12/12/12 
f 12/12/12 11/11/11 2/13/2 1/14/1 
f 1/1/1 4/4/4 13/15/13 14/16/14 
f 4/4/4 6/6/6 15/17/15 13/15/13 
f 6/6/6 8/8/8 16/18/16 15/17/15 
f 8/8/8 10/10/10 17/19/17 16/18/16 
f 10/10/10 12/12/12 18/20/18 17/19/17 
f 12/12/12 1/14/1 14/21/14 18/20/18 
s off
f 14/22/19 13/23/19 19/24/19 
f 13/23/20 15/25/20 19/24/20 
f 15/25/21 16/26/21 19/24/21 
f 16/26/22 17/27/22 19/24/22 
f 17/27/23 18/28/23 19/24/23 
f 18/28/24 14/22/24 19/24/24 
# 12 polygons - 6 triangles

