# 3ds Max Wavefront OBJ Exporter v0.97b - (c)2007 guruware
# File Created: 09.02.2014 13:45:42

#
# object Display_cabinet
#

v  0.0000 10.1424 8.1709
v  -13.4559 10.1424 8.1709
v  -13.4559 11.8335 0.0831
v  0.0000 13.5246 -8.0047
v  12.6223 14.3008 -7.1852
v  -12.6223 14.3008 -7.1852
v  -12.6223 11.1819 7.7310
v  12.6223 11.1819 7.7310
v  0.0000 12.3320 9.0553
v  14.2238 12.3320 9.0553
v  13.4559 14.3827 9.0575
v  0.0000 14.3827 9.0575
v  14.2239 14.1196 0.5059
v  14.2239 15.9072 -8.0435
v  13.4559 17.7649 -7.1181
v  13.4559 16.0738 0.9697
v  -14.2238 15.9072 -8.0435
v  -13.4559 17.7649 -7.1181
v  0.0000 17.7649 -7.1181
v  0.0000 15.9072 -8.0435
v  -14.2239 12.3320 9.0553
v  -13.4559 14.3827 9.0575
v  -13.4559 16.0738 0.9697
v  -14.2239 14.1196 0.5059
v  13.3270 15.7258 9.2575
v  0.0000 15.7258 9.2575
v  13.3270 19.0756 -6.7631
v  13.3270 17.4007 1.2472
v  13.4559 10.1424 8.1709
v  13.4559 11.8335 0.0831
v  -13.3269 19.0756 -6.7631
v  0.0000 19.0756 -6.7631
v  13.4559 13.5246 -8.0047
v  -13.3269 15.7258 9.2575
v  -13.3269 17.4007 1.2472
v  -13.4559 13.5246 -8.0047
v  -12.6223 15.7949 8.6956
v  12.6223 15.7949 8.6956
v  12.6223 18.9138 -6.2207
v  -12.6223 18.9138 -6.2207
v  -9.5687 10.3874 7.7756
v  -9.5702 8.4695 7.4169
v  -9.5702 8.4695 5.1180
v  -9.5687 10.9655 5.1720
v  -12.6757 10.3874 7.7756
v  -12.2485 8.4695 7.4169
v  -12.6757 10.9655 5.1720
v  -12.2485 8.4695 5.1180
v  -9.3446 6.0938 6.5441
v  -9.3446 6.0938 4.8820
v  -11.5428 6.0938 6.7334
v  -11.2810 6.0938 4.8820
v  -9.1476 1.8528 5.4198
v  -9.1466 1.8420 4.6505
v  -9.1190 3.7181 4.6460
v  -9.1190 3.7181 5.6713
v  -10.0180 1.8725 5.4035
v  -10.3135 3.7181 5.6713
v  -10.0424 1.8521 4.6515
v  -10.3135 3.7181 4.6460
v  -9.9692 -0.0371 5.3434
v  -9.2611 -0.0371 5.3434
v  -9.9692 -0.0371 4.7356
v  -9.2611 -0.0371 4.7356
v  -10.7790 6.5783 -6.7735
v  -10.4623 3.2838 -5.9359
v  -11.7288 3.2838 -6.0753
v  -12.4312 6.5783 -6.9553
v  -10.9230 6.5783 -5.3905
v  -10.5335 3.2838 -4.8774
v  -11.5389 3.2838 -4.7768
v  -12.1834 6.5783 -5.2614
v  -10.6416 13.8131 -7.4668
v  -10.7965 9.8729 -7.3161
v  -12.8344 9.8729 -7.5404
v  -13.0652 13.8722 -7.7269
v  -10.8540 -0.0107 -5.0666
v  -9.9731 -0.0107 -4.9696
v  -10.7856 13.3500 -5.4298
v  -10.9406 9.8729 -5.5801
v  -9.9731 -0.0107 -4.1634
v  -12.7016 13.3214 -5.3040
v  -12.5288 9.8729 -5.4510
v  -10.7219 -0.0107 -4.1634
v  9.6025 10.3874 7.7756
v  9.6025 10.9655 5.1720
v  9.6040 8.4696 5.1180
v  9.6040 8.4696 7.4169
v  12.2823 8.4696 7.4169
v  12.7095 10.3874 7.7756
v  12.2823 8.4696 5.1180
v  12.7095 10.9655 5.1721
v  9.3784 6.0938 6.5441
v  9.3784 6.0938 4.8820
v  11.5766 6.0938 6.7334
v  11.3148 6.0938 4.8820
v  9.1814 1.8528 5.4198
v  9.1528 3.7181 5.6713
v  9.1528 3.7181 4.6460
v  9.1804 1.8420 4.6505
v  10.0518 1.8725 5.4035
v  10.3473 3.7181 5.6713
v  10.0762 1.8522 4.6515
v  10.3473 3.7181 4.6460
v  10.0030 -0.0371 5.3434
v  9.2949 -0.0371 5.3434
v  10.0030 -0.0371 4.7356
v  9.2949 -0.0371 4.7356
v  10.8128 6.5783 -6.7735
v  12.4650 6.5783 -6.9553
v  11.7627 3.2838 -6.0753
v  10.4961 3.2838 -5.9359
v  10.5673 3.2838 -4.8775
v  10.9568 6.5783 -5.3905
v  11.5727 3.2838 -4.7768
v  12.2172 6.5783 -5.2614
v  10.6754 13.8131 -7.4668
v  13.0990 13.8722 -7.7269
v  12.8683 9.8729 -7.5404
v  10.8303 9.8729 -7.3161
v  10.8878 -0.0107 -5.0666
v  10.0069 -0.0107 -4.9696
v  10.9744 9.8729 -5.5801
v  10.8194 13.3500 -5.4298
v  10.0069 -0.0107 -4.1634
v  12.7354 13.3214 -5.3040
v  12.5626 9.8729 -5.4510
v  10.7557 -0.0107 -4.1634
# 128 vertices

vn 0.0000 -0.9788 -0.2047
vn -0.0000 0.9788 0.2047
vn 0.0000 0.9788 0.2047
vn -0.0000 -0.1913 0.9815
vn 0.0000 -0.1947 0.9809
vn 0.0000 -0.0646 0.9979
vn -0.0000 -0.0744 0.9972
vn 0.9997 0.0226 0.0047
vn 0.9998 0.0189 0.0040
vn 0.9708 0.2348 0.0491
vn 0.9736 0.2232 0.0467
vn 0.0000 0.2170 -0.9762
vn 0.0000 0.3676 -0.9300
vn 0.0000 0.3554 -0.9347
vn 0.0000 0.2211 -0.9753
vn -0.9998 0.0197 0.0041
vn -0.9712 0.2331 0.0487
vn -0.9736 0.2232 0.0467
vn -0.9997 0.0226 0.0047
vn -0.0000 -0.1472 0.9891
vn -0.0000 -0.1947 0.9809
vn -0.0000 -0.3745 0.9272
vn 0.0000 -0.3745 0.9272
vn 0.9955 0.0927 0.0194
vn 0.9998 0.0197 0.0041
vn 0.9495 -0.3071 -0.0642
vn 0.0000 0.2614 -0.9652
vn 0.0000 -0.0163 -0.9999
vn -0.9955 0.0927 0.0194
vn -0.9998 0.0189 0.0040
vn -0.9495 -0.3071 -0.0642
vn 0.0000 0.9925 0.1221
vn -0.0671 0.9766 0.2042
vn 0.0000 0.9583 0.2858
vn 0.0671 0.9766 0.2042
vn 0.0000 0.2047 -0.9788
vn -1.0000 0.0000 -0.0000
vn -0.0000 -0.2047 0.9788
vn 1.0000 -0.0000 0.0000
vn 1.0000 -0.0007 -0.0001
vn 0.9993 0.0383 -0.0000
vn 0.9988 0.0488 -0.0000
vn 1.0000 -0.0006 -0.0001
vn 0.0000 -0.1838 0.9830
vn 0.0156 -0.2349 0.9719
vn 0.0000 -0.2675 0.9636
vn -0.9730 -0.2305 -0.0138
vn -0.9768 -0.2089 -0.0464
vn -0.9821 -0.1872 -0.0213
vn -0.9688 -0.2465 -0.0275
vn 0.0000 0.0217 -0.9998
vn 0.0000 0.0614 -0.9981
vn 0.0000 0.0530 -0.9986
vn 0.9955 0.0945 -0.0000
vn 0.0819 -0.2974 0.9512
vn 0.0496 -0.3360 0.9406
vn -0.9284 -0.3598 -0.0931
vn -0.9159 -0.3850 -0.1132
vn -0.0000 0.0988 -0.9951
vn 0.0000 0.0988 -0.9951
vn 0.9993 -0.0361 0.0016
vn 0.9993 -0.0373 0.0016
vn 0.9993 0.0380 0.0002
vn 0.9989 0.0476 -0.0000
vn -0.0167 -0.0881 0.9960
vn -0.0184 -0.0842 0.9963
vn -0.0031 -0.2417 0.9704
vn 0.0189 -0.2701 0.9626
vn -0.9948 -0.0972 0.0291
vn -0.9941 -0.1036 0.0319
vn -0.9568 -0.2900 -0.0222
vn -0.9659 -0.2590 -0.0000
vn -0.0002 0.0468 -0.9989
vn -0.0012 -0.0232 -0.9997
vn -0.0012 -0.0222 -0.9998
vn -0.0000 0.0560 -0.9984
vn -0.0053 -0.0381 0.9993
vn 0.0000 -0.0404 0.9992
vn -0.9996 -0.0283 0.0079
vn -0.9997 -0.0256 0.0000
vn 0.9982 -0.0607 0.0005
vn 0.9981 -0.0608 0.0000
vn 0.0000 -0.0453 -0.9990
vn -0.0005 -0.0451 -0.9990
vn 0.1072 -0.2000 -0.9739
vn 0.1059 -0.2518 -0.9620
vn 0.1060 -0.2480 -0.9630
vn 0.1073 -0.1938 -0.9751
vn 0.9872 0.1425 0.0713
vn 0.9932 0.0604 0.0999
vn 0.9925 0.0702 0.0998
vn 0.9870 0.1487 0.0615
vn 0.0982 0.1823 0.9783
vn 0.0912 0.1871 0.9781
vn 0.1010 0.1127 0.9885
vn 0.0981 0.1075 0.9894
vn -0.9719 -0.1874 0.1422
vn -0.9706 -0.1942 0.1420
vn -0.9804 -0.1353 0.1434
vn -0.9815 -0.1267 0.1436
vn 0.1068 -0.0409 -0.9934
vn 0.1088 -0.1016 -0.9889
vn 0.1082 -0.0976 -0.9893
vn 0.1057 -0.0402 -0.9936
vn 0.1055 -0.2654 -0.9583
vn 0.9968 -0.0148 0.0790
vn 0.9974 -0.0368 0.0622
vn 0.9969 -0.0397 0.0675
vn 0.9962 -0.0153 0.0853
vn 0.9858 0.1677 -0.0000
vn 0.9858 0.1674 0.0111
vn 0.0702 -0.0439 0.9966
vn 0.0810 0.0111 0.9967
vn 0.0810 0.0109 0.9967
vn 0.0662 -0.0460 0.9967
vn 0.0160 0.2109 0.9774
vn 0.0000 0.2118 0.9773
vn -0.9871 -0.0727 0.1428
vn -0.9866 -0.0756 0.1443
vn -0.9889 -0.0522 0.1392
vn -0.9893 -0.0507 0.1369
vn -0.9667 -0.2134 0.1414
vn -0.0000 -0.0646 0.9979
vn -0.0000 0.9925 0.1221
vn 0.9712 0.2331 0.0487
vn -0.9708 0.2348 0.0491
vn -0.0000 -0.9788 -0.2047
vn -0.0000 0.9583 0.2858
vn -1.0000 -0.0007 -0.0001
vn -1.0000 -0.0006 -0.0001
vn -0.9988 0.0488 -0.0000
vn -0.9993 0.0383 -0.0000
vn -0.0000 -0.1838 0.9830
vn -0.0000 -0.2675 0.9636
vn -0.0156 -0.2349 0.9719
vn 0.9730 -0.2305 -0.0138
vn 0.9688 -0.2465 -0.0275
vn 0.9821 -0.1872 -0.0213
vn 0.9768 -0.2089 -0.0464
vn -0.9955 0.0945 -0.0000
vn -0.0496 -0.3360 0.9406
vn -0.0819 -0.2974 0.9512
vn 0.9284 -0.3598 -0.0931
vn 0.9159 -0.3850 -0.1132
vn -0.9993 -0.0361 0.0016
vn -0.9989 0.0476 -0.0000
vn -0.9993 0.0380 0.0002
vn -0.9993 -0.0373 0.0016
vn 0.0167 -0.0881 0.9960
vn -0.0189 -0.2701 0.9626
vn 0.0031 -0.2417 0.9704
vn 0.0184 -0.0842 0.9963
vn 0.9948 -0.0972 0.0291
vn 0.9659 -0.2590 0.0000
vn 0.9568 -0.2900 -0.0222
vn 0.9941 -0.1036 0.0319
vn 0.0002 0.0468 -0.9989
vn 0.0000 0.0560 -0.9984
vn 0.0012 -0.0222 -0.9998
vn 0.0012 -0.0232 -0.9997
vn 0.0053 -0.0381 0.9993
vn 0.9996 -0.0283 0.0079
vn 0.9997 -0.0255 -0.0000
vn -0.9982 -0.0607 0.0005
vn -0.9981 -0.0608 -0.0000
vn 0.0005 -0.0451 -0.9990
vn -0.1072 -0.2000 -0.9739
vn -0.1073 -0.1938 -0.9751
vn -0.1060 -0.2480 -0.9630
vn -0.1059 -0.2518 -0.9620
vn -0.9872 0.1425 0.0713
vn -0.9870 0.1487 0.0615
vn -0.9925 0.0702 0.0998
vn -0.9932 0.0604 0.0999
vn -0.0982 0.1823 0.9783
vn -0.0981 0.1075 0.9894
vn -0.1010 0.1127 0.9885
vn -0.0912 0.1871 0.9781
vn 0.9719 -0.1874 0.1422
vn 0.9815 -0.1267 0.1436
vn 0.9804 -0.1353 0.1434
vn 0.9706 -0.1942 0.1420
vn -0.1068 -0.0409 -0.9934
vn -0.1057 -0.0402 -0.9936
vn -0.1082 -0.0976 -0.9893
vn -0.1088 -0.1016 -0.9889
vn -0.1055 -0.2654 -0.9583
vn -0.9968 -0.0148 0.0790
vn -0.9962 -0.0153 0.0853
vn -0.9969 -0.0397 0.0675
vn -0.9974 -0.0368 0.0622
vn -0.9858 0.1674 0.0111
vn -0.9858 0.1677 -0.0000
vn -0.0702 -0.0439 0.9966
vn -0.0662 -0.0460 0.9967
vn -0.0810 0.0109 0.9967
vn -0.0810 0.0111 0.9967
vn -0.0160 0.2109 0.9774
vn 0.9871 -0.0727 0.1428
vn 0.9893 -0.0507 0.1369
vn 0.9889 -0.0522 0.1392
vn 0.9866 -0.0756 0.1443
vn 0.9667 -0.2134 0.1414
# 203 vertex normals

vt 0.4509 0.5325 0.0000
vt 0.0062 0.5325 0.0000
vt 0.0062 0.7648 0.0000
vt 0.4509 0.9972 0.0000
vt 0.7698 0.8842 0.0000
vt 0.7698 0.5775 0.0000
vt 0.9976 0.5775 0.0000
vt 0.9976 0.8842 0.0000
vt 0.7094 0.9006 0.0000
vt 0.7097 0.5302 0.0000
vt 0.6562 0.5316 0.0000
vt 0.6562 0.9006 0.0000
vt 0.7091 0.7868 0.0000
vt 0.7095 1.0001 0.0000
vt 0.6564 0.9991 0.0000
vt 0.6564 0.7867 0.0000
vt 0.6807 0.9978 0.0000
vt 0.7326 0.9966 0.0000
vt 0.7326 0.6494 0.0000
vt 0.6809 0.6494 0.0000
vt 0.7091 0.5318 0.0000
vt 0.6566 0.5324 0.0000
vt 0.6566 0.7448 0.0000
vt 0.7092 0.7449 0.0000
vt 0.6211 0.5316 0.0000
vt 0.6211 0.9006 0.0000
vt 0.7094 0.8999 0.0000
vt 0.7101 0.5340 0.0000
vt 0.7669 0.5316 0.0000
vt 0.7669 0.8999 0.0000
vt 0.6212 0.9991 0.0000
vt 0.6212 0.7867 0.0000
vt 0.7091 0.7866 0.0000
vt 0.7098 0.9977 0.0000
vt 0.7677 0.9992 0.0000
vt 0.7677 0.7868 0.0000
vt 0.7673 0.9966 0.0000
vt 0.7673 0.6494 0.0000
vt 0.6809 0.6499 0.0000
vt 0.6801 0.9946 0.0000
vt 0.6234 0.9970 0.0000
vt 0.6234 0.6499 0.0000
vt 0.6214 0.5324 0.0000
vt 0.6214 0.7448 0.0000
vt 0.7092 0.5334 0.0000
vt 0.7679 0.5322 0.0000
vt 0.7679 0.7446 0.0000
vt 0.7092 0.7444 0.0000
vt 0.0076 0.5480 0.0000
vt 0.0076 0.7739 0.0000
vt 0.0014 0.5599 0.0000
vt 0.0072 0.5729 0.0000
vt 0.0078 0.7760 0.0000
vt 0.0016 0.5871 0.0000
vt 0.0016 0.9752 0.0000
vt 0.0016 0.7626 0.0000
vt 0.0074 0.9640 0.0000
vt 0.0001 0.9359 0.0000
vt 0.0002 0.7449 0.0000
vt 0.0055 0.9228 0.0000
vt 0.9967 0.8828 0.0000
vt 0.9473 0.8828 0.0000
vt 0.9473 0.5766 0.0000
vt 0.9967 0.5766 0.0000
vt 0.9980 0.8828 0.0000
vt 0.9980 0.8037 0.0000
vt 0.7712 0.8037 0.0000
vt 0.7712 0.8828 0.0000
vt 0.7714 0.5781 0.0000
vt 0.8207 0.5781 0.0000
vt 0.8207 0.8837 0.0000
vt 0.7714 0.8837 0.0000
vt 0.9977 0.6573 0.0000
vt 0.7703 0.6573 0.0000
vt 0.7703 0.5780 0.0000
vt 0.9977 0.5780 0.0000
vt 0.6289 0.9463 0.0000
vt 0.6289 0.8532 0.0000
vt 0.6958 0.8532 0.0000
vt 0.6958 0.9463 0.0000
vt 0.7616 0.9474 0.0000
vt 0.6922 0.9474 0.0000
vt 0.6922 0.8647 0.0000
vt 0.7616 0.8647 0.0000
vt 0.6282 0.9474 0.0000
vt 0.6282 0.8647 0.0000
vt 0.7627 0.8532 0.0000
vt 0.7627 0.9463 0.0000
vt 0.6289 0.7618 0.0000
vt 0.6958 0.7618 0.0000
vt 0.6922 0.7648 0.0000
vt 0.7616 0.7648 0.0000
vt 0.6282 0.7648 0.0000
vt 0.7627 0.7618 0.0000
vt 0.6289 0.6011 0.0000
vt 0.6958 0.6011 0.0000
vt 0.6958 0.6705 0.0000
vt 0.6289 0.6705 0.0000
vt 0.6922 0.5966 0.0000
vt 0.7616 0.5966 0.0000
vt 0.7616 0.6649 0.0000
vt 0.6922 0.6649 0.0000
vt 0.6282 0.5966 0.0000
vt 0.6282 0.6649 0.0000
vt 0.7627 0.6011 0.0000
vt 0.7627 0.6705 0.0000
vt 0.6922 0.5313 0.0000
vt 0.7616 0.5313 0.0000
vt 0.6282 0.5313 0.0000
vt 0.6289 0.5315 0.0000
vt 0.6958 0.5315 0.0000
vt 0.7627 0.5315 0.0000
vt 0.6304 0.7537 0.0000
vt 0.6304 0.6445 0.0000
vt 0.6945 0.6445 0.0000
vt 0.6945 0.7537 0.0000
vt 0.7608 0.6412 0.0000
vt 0.7608 0.7490 0.0000
vt 0.6932 0.7490 0.0000
vt 0.6932 0.6412 0.0000
vt 0.6312 0.6412 0.0000
vt 0.6312 0.7490 0.0000
vt 0.7604 0.6445 0.0000
vt 0.7604 0.7537 0.0000
vt 0.6304 0.9695 0.0000
vt 0.6304 0.8599 0.0000
vt 0.6945 0.8599 0.0000
vt 0.6945 0.9695 0.0000
vt 0.6945 0.5323 0.0000
vt 0.6304 0.5323 0.0000
vt 0.7608 0.8542 0.0000
vt 0.7608 0.9692 0.0000
vt 0.6932 0.9692 0.0000
vt 0.6932 0.8542 0.0000
vt 0.6932 0.5320 0.0000
vt 0.7608 0.5320 0.0000
vt 0.6312 0.9692 0.0000
vt 0.6312 0.8542 0.0000
vt 0.6312 0.5320 0.0000
vt 0.7604 0.8599 0.0000
vt 0.7604 0.9695 0.0000
vt 0.7604 0.5323 0.0000
vt 0.4548 0.9972 0.0000
vt 0.0101 0.9972 0.0000
vt 0.0101 0.7648 0.0000
vt 0.6562 0.8999 0.0000
vt 0.7326 0.6499 0.0000
vt 0.7326 0.9970 0.0000
vt 0.6211 0.8999 0.0000
vt 0.7669 0.9006 0.0000
vt 0.7673 0.6499 0.0000
vt 0.7673 0.9970 0.0000
vt 0.6234 0.6494 0.0000
vt 0.6234 0.9966 0.0000
vt 0.0076 0.9983 0.0000
vt 0.0014 0.9865 0.0000
vt 0.0016 0.5499 0.0000
vt 0.0074 0.5612 0.0000
vt 0.0062 0.9972 0.0000
vt 0.6564 0.7868 0.0000
vt 0.6564 0.9992 0.0000
vt 0.6566 0.7446 0.0000
vt 0.6566 0.5322 0.0000
vt 0.6212 0.7868 0.0000
vt 0.6212 0.9992 0.0000
vt 0.7677 0.7867 0.0000
vt 0.7677 0.9991 0.0000
vt 0.6214 0.7446 0.0000
vt 0.6214 0.5322 0.0000
vt 0.7679 0.7448 0.0000
vt 0.7679 0.5324 0.0000
vt 0.0083 0.9790 0.0000
vt 0.0026 0.9652 0.0000
vt 0.0003 0.5539 0.0000
vt 0.0057 0.5671 0.0000
vt 0.0101 0.5325 0.0000
vt 0.4548 0.5325 0.0000
# 177 texture coords

g Display_cabinet
s 2
f 1/1/1 2/2/1 3/3/1 4/4/1 
s 4
f 5/5/2 6/6/3 7/7/2 8/8/2 
s 8
f 9/9/4 10/10/5 11/11/6 12/12/7 
s 16
f 13/13/8 14/14/9 15/15/10 16/16/11 
s 32
f 17/17/12 18/18/13 19/19/14 20/20/15 
s 64
f 21/21/16 22/22/17 23/23/18 24/24/19 
s 8
f 12/12/7 11/11/6 25/25/20 26/26/20 
f 9/27/4 21/28/21 2/29/22 1/30/23 
s 16
f 16/16/11 15/15/10 27/31/24 28/32/24 
f 13/33/8 10/34/25 29/35/26 30/36/26 
s 32
f 19/19/14 18/18/13 31/37/27 32/38/27 
f 20/39/15 14/40/12 33/41/28 4/42/28 
s 64
f 22/22/17 34/43/29 35/44/29 23/23/18 
f 17/45/30 36/46/31 3/47/31 24/48/19 
s off
f 34/49/32 26/50/32 37/51/32 
f 25/52/33 28/53/33 38/54/33 
f 27/55/34 32/56/34 39/57/34 
f 31/58/35 35/59/35 40/60/35 
f 7/61/36 37/62/36 38/63/36 8/64/36 
f 8/65/37 38/66/37 39/67/37 5/68/37 
f 5/69/38 39/70/38 40/71/38 6/72/38 
f 40/73/39 37/74/39 7/75/39 6/76/39 
s 1
f 41/77/40 42/78/41 43/79/42 44/80/43 
s 2
f 41/81/44 45/82/44 46/83/45 42/84/46 
s 1
f 46/83/47 45/82/48 47/85/49 48/86/50 
s 2
f 44/80/51 43/79/52 48/87/53 47/88/51 
s 1
f 49/89/54 50/90/54 43/79/42 42/78/41 
s 2
f 46/83/45 51/91/55 49/92/56 42/84/46 
s 1
f 51/91/57 46/83/47 48/86/50 52/93/58 
s 2
f 43/79/52 50/90/59 52/94/60 48/87/53 
s 1
f 53/95/61 54/96/62 55/97/63 56/98/64 
s 2
f 57/99/65 53/100/66 56/101/67 58/102/68 
s 1
f 59/103/69 57/99/70 58/102/71 60/104/72 
s 2
f 55/97/73 54/96/74 59/105/75 60/106/76 
s 1
f 56/98/64 55/97/63 50/90/54 49/89/54 
s 2
f 58/102/68 56/101/67 49/92/56 51/91/55 
s 1
f 58/102/71 51/91/57 52/93/58 60/104/72 
s 2
f 50/90/59 55/97/73 60/106/76 52/94/60 
f 61/107/77 62/108/78 53/100/66 57/99/65 
s 1
f 63/109/79 61/107/80 57/99/70 59/103/69 
f 62/110/81 64/111/82 54/96/62 53/95/61 
s 2
f 54/96/74 64/111/83 63/112/84 59/105/75 
s 1
f 65/113/85 66/114/86 67/115/87 68/116/88 
s 2
f 66/117/89 65/118/90 69/119/91 70/120/92 
s 1
f 71/121/93 70/120/94 69/119/95 72/122/96 
s 2
f 67/115/97 71/123/98 72/124/99 68/116/100 
s 1
f 73/125/101 74/126/102 75/127/103 76/128/104 
f 74/126/102 65/113/85 68/116/88 75/127/103 
f 77/129/105 67/115/87 66/114/86 78/130/105 
s 2
f 74/131/106 73/132/107 79/133/108 80/134/109 
f 65/118/90 74/131/106 80/134/109 69/119/91 
f 70/120/92 81/135/110 78/136/111 66/117/89 
s 1
f 82/137/112 83/138/113 80/134/114 79/133/115 
f 72/122/96 69/119/95 80/134/114 83/138/113 
f 70/120/94 71/121/93 84/139/116 81/135/117 
s 2
f 75/127/118 83/140/119 82/141/120 76/128/121 
f 68/116/100 72/124/99 83/140/119 75/127/118 
f 71/123/98 67/115/97 77/129/122 84/142/122 
f 4/143/1 33/144/1 30/145/1 
s 8
f 9/27/4 12/146/7 22/11/123 21/28/21 
s 32
f 14/40/12 20/39/15 19/147/14 15/148/13 
s 8
f 12/146/7 26/149/20 34/25/20 22/11/123 
f 9/9/4 1/150/23 29/29/23 10/10/5 
s 32
f 19/147/14 32/151/27 27/152/27 15/148/13 
f 20/20/15 4/153/28 36/154/28 17/17/12 
s off
f 26/50/124 25/155/124 38/156/124 
f 32/56/34 31/157/34 40/158/34 
s 2
f 3/3/1 36/159/1 4/4/1 
s 16
f 10/34/25 13/33/8 16/160/11 11/161/125 
s 64
f 24/48/19 23/162/18 18/163/126 17/45/30 
s 16
f 11/161/125 16/160/11 28/164/24 25/165/24 
f 14/14/9 13/13/8 30/166/26 33/167/26 
s 64
f 23/162/18 35/168/29 31/169/29 18/163/126 
f 24/24/19 3/170/31 2/171/31 21/21/16 
s off
f 28/53/33 27/172/33 39/173/33 
f 35/59/35 34/174/35 37/175/35 
s 2
f 4/143/1 30/145/1 29/176/127 1/177/1 
s off
f 26/50/32 38/156/32 37/51/32 
f 35/59/35 37/175/35 40/60/35 
f 28/53/33 39/173/33 38/54/33 
f 32/56/128 40/158/128 39/57/128 
s 1
f 85/77/129 86/80/130 87/79/131 88/78/132 
s 2
f 85/81/133 88/84/134 89/83/135 90/82/44 
s 1
f 89/83/136 91/86/137 92/85/138 90/82/139 
s 2
f 86/80/51 92/88/51 91/87/53 87/79/52 
s 1
f 93/89/140 88/78/132 87/79/131 94/90/140 
s 2
f 89/83/135 88/84/134 93/92/141 95/91/142 
s 1
f 95/91/143 96/93/144 91/86/137 89/83/136 
s 2
f 87/79/52 91/87/53 96/94/60 94/90/60 
s 1
f 97/95/145 98/98/146 99/97/147 100/96/148 
s 2
f 101/99/149 102/102/150 98/101/151 97/100/152 
s 1
f 103/103/153 104/104/154 102/102/155 101/99/156 
s 2
f 99/97/157 104/106/158 103/105/159 100/96/160 
s 1
f 98/98/146 93/89/140 94/90/140 99/97/147 
s 2
f 102/102/150 95/91/142 93/92/141 98/101/151 
s 1
f 102/102/155 104/104/154 96/93/144 95/91/143 
s 2
f 94/90/60 96/94/60 104/106/158 99/97/157 
f 105/107/161 101/99/149 97/100/152 106/108/78 
s 1
f 107/109/162 103/103/153 101/99/156 105/107/163 
f 106/110/164 97/95/145 100/96/148 108/111/165 
s 2
f 100/96/160 103/105/159 107/112/166 108/111/83 
s 1
f 109/113/167 110/116/168 111/115/169 112/114/170 
s 2
f 112/117/171 113/120/172 114/119/173 109/118/174 
s 1
f 115/121/175 116/122/176 114/119/177 113/120/178 
s 2
f 111/115/179 110/116/180 116/124/181 115/123/182 
s 1
f 117/125/183 118/128/184 119/127/185 120/126/186 
f 120/126/186 119/127/185 110/116/168 109/113/167 
f 121/129/187 122/130/187 112/114/170 111/115/169 
s 2
f 120/131/188 123/134/189 124/133/190 117/132/191 
f 109/118/174 114/119/173 123/134/189 120/131/188 
f 113/120/172 112/117/171 122/136/192 125/135/193 
s 1
f 126/137/194 124/133/195 123/134/196 127/138/197 
f 116/122/176 127/138/197 123/134/196 114/119/177 
f 113/120/178 125/135/117 128/139/198 115/121/175 
s 2
f 119/127/199 118/128/200 126/141/201 127/140/202 
f 110/116/180 119/127/199 127/140/202 116/124/181 
f 115/123/182 128/142/203 121/129/203 111/115/179 
# 103 polygons - 14 triangles

