# 3ds Max Wavefront OBJ Exporter v0.97b - (c)2007 guruware
# File Created: 09.02.2014 00:06:03

#
# object Door_B
#

v  16.9479 18.0439 2.4737
v  16.3358 17.7543 2.4737
v  16.3314 18.2550 1.7296
v  16.6293 18.3960 1.7296
v  16.3358 18.7363 3.2076
v  15.5507 17.8913 0.8564
v  16.3378 17.5373 0.8564
v  16.3325 18.1319 1.1867
v  15.9379 18.3094 1.1867
v  16.0181 18.3960 1.7296
v  15.6920 18.0439 2.4737
v  15.3676 18.7363 2.4737
v  15.8601 18.7363 1.7296
v  16.9227 18.7363 1.1867
v  16.7076 18.3094 1.1867
v  17.0860 17.8913 0.8564
v  17.5150 18.7363 0.8564
v  15.7390 18.7363 1.1867
v  16.8001 18.7363 1.7296
v  17.2988 18.7363 2.4737
v  15.1540 18.7363 0.8564
v  16.9479 19.4286 2.4737
v  16.6293 19.0766 1.7296
v  16.3314 19.2175 1.7296
v  16.3358 19.7182 2.4737
v  15.5507 19.5813 0.8564
v  15.9379 19.1631 1.1867
v  16.3325 19.3406 1.1867
v  16.3378 19.9353 0.8564
v  16.0181 19.0766 1.7296
v  15.6920 19.4286 2.4737
v  17.0860 19.5813 0.8564
v  16.7076 19.1631 1.1867
v  16.9479 18.0439 -2.4737
v  16.6293 18.3960 -1.7296
v  16.3314 18.2550 -1.7296
v  16.3358 17.7543 -2.4737
v  16.3358 18.7363 -3.2076
v  15.5507 17.8913 -0.8564
v  15.9379 18.3094 -1.1867
v  16.3325 18.1319 -1.1867
v  16.3378 17.5373 -0.8564
v  16.0181 18.3960 -1.7296
v  15.8601 18.7363 -1.7296
v  15.3676 18.7363 -2.4737
v  15.6920 18.0439 -2.4737
v  16.9227 18.7363 -1.1867
v  17.5150 18.7363 -0.8564
v  17.0860 17.8913 -0.8564
v  16.7076 18.3094 -1.1867
v  15.7390 18.7363 -1.1867
v  17.2988 18.7363 -2.4737
v  16.8001 18.7363 -1.7296
v  15.1540 18.7363 -0.8564
v  16.9479 19.4286 -2.4737
v  16.3358 19.7182 -2.4737
v  16.3314 19.2175 -1.7296
v  16.6293 19.0766 -1.7296
v  15.5507 19.5813 -0.8564
v  16.3378 19.9353 -0.8564
v  16.3325 19.3406 -1.1867
v  15.9379 19.1631 -1.1867
v  16.0181 19.0766 -1.7296
v  15.6920 19.4286 -2.4737
v  16.7076 19.1631 -1.1867
v  17.0860 19.5813 -0.8564
v  14.5970 21.3901 0.3803
v  14.5970 38.3312 0.3803
v  3.7107 38.3312 0.3803
v  3.7107 21.3901 0.3803
v  18.3060 18.4680 0.8777
v  18.3060 18.4680 -0.8777
v  18.3060 41.2533 -0.8777
v  18.3060 41.2533 0.8777
v  0.0016 18.4680 0.8777
v  0.0016 18.4680 -0.8777
v  0.0016 -0.0022 -0.8777
v  0.0016 -0.0022 0.8777
v  14.5970 15.5459 0.3803
v  3.7107 15.5459 0.3803
v  3.7107 2.9199 0.3803
v  14.5970 2.9199 0.3803
v  0.0016 41.2533 -0.8777
v  0.0016 41.2533 0.8777
v  2.8689 39.1818 0.8777
v  15.4388 39.1818 0.8777
v  2.8689 20.5395 0.8777
v  15.4388 20.5395 0.8777
v  2.8689 2.0693 0.8777
v  2.8689 16.3964 0.8777
v  15.4388 2.0693 0.8777
v  18.3060 -0.0022 0.8777
v  15.4388 16.3964 0.8777
v  15.1549 38.9333 0.7886
v  3.1527 38.9333 0.7886
v  3.1527 20.7880 0.7886
v  15.1549 20.7880 0.7886
v  3.1527 16.1479 0.7886
v  3.1527 2.3178 0.7886
v  15.1549 2.3178 0.7886
v  15.1549 16.1479 0.7886
v  14.5970 21.3901 -0.3803
v  3.7107 21.3901 -0.3803
v  3.7107 38.3312 -0.3803
v  14.5970 38.3312 -0.3803
v  14.5970 15.5459 -0.3803
v  14.5970 2.9199 -0.3803
v  3.7107 2.9199 -0.3803
v  3.7107 15.5459 -0.3803
v  18.3060 -0.0022 -0.8777
v  2.8689 39.1818 -0.8777
v  15.4388 39.1818 -0.8777
v  2.8689 20.5395 -0.8777
v  15.4388 20.5395 -0.8777
v  2.8689 2.0693 -0.8777
v  2.8689 16.3964 -0.8777
v  15.4388 2.0693 -0.8777
v  15.4388 16.3964 -0.8777
v  3.1527 38.9333 -0.7886
v  15.1549 38.9333 -0.7886
v  3.1527 20.7880 -0.7886
v  15.1549 20.7880 -0.7886
v  3.1527 2.3178 -0.7886
v  3.1527 16.1479 -0.7886
v  15.1549 2.3178 -0.7886
v  15.1549 16.1479 -0.7886
# 126 vertices

vn 0.5859 -0.6063 -0.5377
vn 0.2330 -0.8062 -0.5439
vn 0.0095 -0.9785 -0.2062
vn 0.6877 -0.6999 -0.1930
vn 0.2725 -0.5760 0.7707
vn 0.4312 -0.4487 0.7828
vn 0.0050 -0.0000 1.0000
vn -0.2600 -0.5781 0.7734
vn -0.3502 -0.3588 0.8652
vn 0.0046 -0.4856 0.8742
vn 0.0073 -0.7524 0.6587
vn -0.5436 -0.5479 0.6358
vn -0.6911 -0.6957 -0.1959
vn -0.5878 -0.6007 -0.5418
vn -0.8344 -0.0000 -0.5511
vn -0.9789 -0.0000 -0.2041
vn 0.7494 0.0000 0.6621
vn 0.5443 -0.5547 0.6293
vn 0.3507 -0.3639 0.8629
vn 0.4871 0.0000 0.8733
vn -0.3500 -0.7781 -0.5216
vn -0.7563 -0.0000 0.6542
vn 0.9782 -0.0000 -0.2079
vn 0.8313 -0.0000 -0.5558
vn -0.4286 -0.4388 0.7898
vn -0.6041 -0.0000 0.7969
vn 0.6062 -0.0000 0.7953
vn -0.4917 -0.0000 0.8708
vn 0.5859 0.6063 -0.5377
vn 0.6877 0.6999 -0.1930
vn 0.0095 0.9785 -0.2062
vn 0.2330 0.8062 -0.5439
vn 0.2725 0.5760 0.7707
vn -0.2600 0.5781 0.7734
vn 0.4312 0.4487 0.7828
vn -0.3502 0.3588 0.8652
vn -0.5436 0.5479 0.6358
vn 0.0073 0.7524 0.6587
vn 0.0046 0.4856 0.8742
vn -0.6911 0.6957 -0.1959
vn -0.5878 0.6008 -0.5418
vn 0.3507 0.3639 0.8629
vn 0.5443 0.5547 0.6293
vn -0.3500 0.7781 -0.5216
vn -0.4286 0.4388 0.7898
vn 0.5859 -0.6063 0.5377
vn 0.6877 -0.6999 0.1930
vn 0.0095 -0.9785 0.2062
vn 0.2330 -0.8062 0.5439
vn 0.2725 -0.5760 -0.7707
vn -0.2600 -0.5781 -0.7734
vn 0.0050 -0.0000 -1.0000
vn 0.4312 -0.4487 -0.7828
vn -0.3502 -0.3588 -0.8652
vn -0.3555 -0.3542 -0.8650
vn 0.0048 -0.4856 -0.8742
vn 0.0046 -0.4856 -0.8742
vn -0.6911 -0.6957 0.1959
vn -0.9789 -0.0000 0.2041
vn -0.8344 -0.0000 0.5511
vn -0.5878 -0.6007 0.5418
vn 0.4879 0.0000 -0.8729
vn 0.4871 0.0000 -0.8733
vn 0.3507 -0.3639 -0.8629
vn 0.3565 -0.3589 -0.8626
vn 0.6818 -0.7007 -0.2104
vn 0.0093 -0.9752 -0.2211
vn -0.3500 -0.7781 0.5216
vn -0.6856 -0.6963 -0.2125
vn -0.9760 0.0000 -0.2177
vn 0.8313 -0.0000 0.5558
vn 0.9782 -0.0000 0.2079
vn -0.4286 -0.4388 -0.7898
vn -0.6041 -0.0000 -0.7969
vn 0.6062 -0.0000 -0.7953
vn 0.9754 0.0000 -0.2203
vn -0.4917 -0.0000 -0.8708
vn -0.4924 -0.0000 -0.8704
vn 0.5859 0.6063 0.5377
vn 0.2330 0.8062 0.5439
vn 0.0095 0.9785 0.2062
vn 0.6877 0.6999 0.1930
vn 0.2725 0.5760 -0.7707
vn 0.4312 0.4487 -0.7828
vn -0.2600 0.5781 -0.7734
vn -0.3502 0.3588 -0.8652
vn 0.0046 0.4856 -0.8742
vn 0.0048 0.4856 -0.8742
vn -0.3555 0.3542 -0.8650
vn -0.6911 0.6957 0.1959
vn -0.5878 0.6008 0.5418
vn 0.3565 0.3589 -0.8626
vn 0.3507 0.3639 -0.8629
vn 0.6818 0.7007 -0.2104
vn 0.0093 0.9752 -0.2211
vn -0.3500 0.7781 0.5216
vn -0.6856 0.6963 -0.2125
vn -0.4286 0.4388 -0.7898
vn 0.0000 -0.0000 1.0000
vn 1.0000 0.0000 -0.0000
vn -1.0000 0.0000 -0.0000
vn 0.0000 0.0000 1.0000
vn -0.0000 -0.0000 1.0000
vn -0.0000 -0.5613 0.8276
vn 0.5906 -0.0000 0.8070
vn -0.0000 0.5613 0.8276
vn -0.5906 -0.0000 0.8070
vn 0.0000 -0.5613 0.8276
vn -0.0000 -0.3375 0.9413
vn 0.2994 -0.0000 0.9541
vn -0.0000 0.3375 0.9413
vn -0.2994 -0.0000 0.9541
vn 0.0000 -0.3375 0.9413
vn 0.0000 1.0000 -0.0000
vn 0.0000 -0.0000 -1.0000
vn 0.0000 0.0000 -1.0000
vn -0.0000 -0.0000 -1.0000
vn -0.0000 -0.5613 -0.8276
vn 0.5906 -0.0000 -0.8070
vn 0.0000 0.5613 -0.8276
vn -0.5906 -0.0000 -0.8070
vn 0.0000 -0.5613 -0.8276
vn -0.0000 -0.3375 -0.9413
vn 0.2994 -0.0000 -0.9541
vn 0.0000 0.3375 -0.9413
vn -0.2994 -0.0000 -0.9541
vn 0.0000 -0.3375 -0.9413
vn 0.0000 -1.0000 -0.0000
# 128 vertex normals

vt 0.2792 0.0556 0.0000
vt 0.2518 0.0520 0.0000
vt 0.2528 0.0057 0.0000
vt 0.2749 0.0088 0.0000
vt 0.2527 0.1121 0.0000
vt 0.2569 0.0494 0.0000
vt 0.1451 0.0131 0.0000
vt 0.1864 0.0108 0.0000
vt 0.1816 0.0483 0.0000
vt 0.1540 0.0483 0.0000
vt 0.2299 0.0072 0.0000
vt 0.2271 0.0528 0.0000
vt 0.1941 0.0623 0.0000
vt 0.2085 0.0106 0.0000
vt 0.2311 0.0678 0.0000
vt 0.2073 0.0553 0.0000
vt 0.2237 0.0231 0.0000
vt 0.2625 0.0522 0.0000
vt 0.1995 0.0859 0.0000
vt 0.1779 0.0803 0.0000
vt 0.1550 0.0792 0.0000
vt 0.1333 0.0802 0.0000
vt 0.1284 0.0552 0.0000
vt 0.2967 0.0121 0.0000
vt 0.3127 0.0640 0.0000
vt 0.2208 0.0916 0.0000
vt 0.1018 0.0332 0.0000
vt 0.4128 0.9854 0.0000
vt 0.0120 0.9854 0.0000
vt 0.0120 0.7278 0.0000
vt 0.4128 0.7278 0.0000
vt 0.6223 0.5315 0.0000
vt 0.7657 0.5315 0.0000
vt 0.7657 0.9765 0.0000
vt 0.6223 0.9765 0.0000
vt 0.7656 0.5317 0.0000
vt 0.6224 0.5317 0.0000
vt 0.6224 0.9756 0.0000
vt 0.7656 0.9756 0.0000
vt 0.3487 0.6629 0.0000
vt 0.3487 0.9205 0.0000
vt 0.0500 0.9205 0.0000
vt 0.0500 0.6629 0.0000
vt 0.0439 0.6466 0.0000
vt 0.0439 0.9049 0.0000
vt 0.0014 0.9638 0.0000
vt 0.0014 0.5876 0.0000
vt 0.4271 0.6466 0.0000
vt 0.4685 0.5876 0.0000
vt 0.4271 0.9049 0.0000
vt 0.4685 0.9638 0.0000
vt 0.1336 0.6466 0.0000
vt 0.4281 0.6466 0.0000
vt 0.0911 0.5876 0.0000
vt 0.1336 0.9049 0.0000
vt 0.0911 0.9638 0.0000
vt 0.4281 0.9049 0.0000
vt 0.0647 0.0167 0.0000
vt 0.3278 0.0167 0.0000
vt 0.3413 0.0323 0.0000
vt 0.0512 0.0323 0.0000
vt 0.0250 0.0160 0.0000
vt 0.3310 0.0160 0.0000
vt 0.3419 0.0326 0.0000
vt 0.0141 0.0326 0.0000
vt 0.3310 0.0362 0.0000
vt 0.0250 0.0362 0.0000
vt 0.0141 0.0196 0.0000
vt 0.3419 0.0196 0.0000
vt 0.3214 0.0353 0.0000
vt 0.0341 0.0353 0.0000
vt 0.0204 0.0186 0.0000
vt 0.3351 0.0186 0.0000
vt 0.3208 0.0358 0.0000
vt 0.0352 0.0358 0.0000
vt 0.0206 0.0188 0.0000
vt 0.3355 0.0188 0.0000
vt 0.0341 0.0150 0.0000
vt 0.3214 0.0150 0.0000
vt 0.3351 0.0317 0.0000
vt 0.0204 0.0317 0.0000
vt 0.0352 0.0151 0.0000
vt 0.3208 0.0151 0.0000
vt 0.3355 0.0320 0.0000
vt 0.0206 0.0320 0.0000
vt 0.0045 0.1950 0.0000
vt 0.0100 0.2109 0.0000
vt 0.2430 0.2109 0.0000
vt 0.2485 0.1950 0.0000
vt 0.2485 0.2109 0.0000
vt 0.2452 0.1950 0.0000
vt 0.0077 0.1950 0.0000
vt 0.0045 0.2109 0.0000
vt 0.2430 0.1950 0.0000
vt 0.0100 0.1950 0.0000
vt 0.0077 0.2109 0.0000
vt 0.2452 0.2109 0.0000
vt 0.2442 0.1950 0.0000
vt 0.0087 0.1950 0.0000
vt 0.0087 0.2109 0.0000
vt 0.2442 0.2109 0.0000
vt 0.7658 0.5317 0.0000
vt 0.7658 0.9982 0.0000
vt 0.6221 0.9982 0.0000
vt 0.6221 0.5317 0.0000
vt 0.6223 0.9767 0.0000
vt 0.7657 0.9767 0.0000
vt 0.6226 0.9983 0.0000
vt 0.6226 0.5310 0.0000
vt 0.7666 0.5310 0.0000
vt 0.7666 0.9983 0.0000
# 111 texture coords

g Door_B
s 1
f 1/1/1 2/2/2 3/3/3 4/4/4 
s 2
f 2/2/5 1/1/6 5/5/7 2/6/8 
s 1
f 6/7/9 7/8/10 8/9/11 9/10/12 
f 10/11/13 11/12/14 12/13/15 13/14/16 
f 14/15/17 15/16/18 16/17/19 17/18/20 
f 15/16/18 4/19/4 3/20/3 8/9/11 
f 10/11/13 3/3/3 2/2/2 2/6/21 
f 10/11/13 2/6/21 11/12/14 
f 9/10/12 10/21/13 13/22/16 18/23/22 
f 4/4/4 19/24/23 20/25/24 1/1/1 
s 2
f 5/5/7 11/12/25 2/6/8 
f 12/13/26 11/12/25 5/5/7 
f 5/5/7 1/1/6 20/25/27 
s 1
f 9/10/12 8/9/11 3/20/3 10/21/13 
f 15/16/18 14/15/17 19/26/23 4/19/4 
f 16/17/19 15/16/18 8/9/11 7/8/10 
f 6/7/9 9/10/12 18/23/22 21/27/28 
f 22/1/29 23/4/30 24/3/31 25/2/32 
s 2
f 25/2/33 25/6/34 5/5/7 22/1/35 
s 1
f 26/7/36 27/10/37 28/9/38 29/8/39 
f 30/11/40 13/14/16 12/13/15 31/12/41 
f 14/15/17 17/18/20 32/17/42 33/16/43 
f 33/16/43 28/9/38 24/20/31 23/19/30 
f 30/11/40 31/12/41 25/6/44 25/2/32 
f 30/11/40 25/2/32 24/3/31 
f 27/10/37 18/23/22 13/22/16 30/21/40 
f 23/4/30 22/1/29 20/25/24 19/24/23 
s 2
f 5/5/7 25/6/34 31/12/45 
f 12/13/26 5/5/7 31/12/45 
f 5/5/7 20/25/27 22/1/35 
s 1
f 27/10/37 30/21/40 24/20/31 28/9/38 
f 33/16/43 23/19/30 19/26/23 14/15/17 
f 32/17/42 29/8/39 28/9/38 33/16/43 
f 26/7/36 21/27/28 18/23/22 27/10/37 
f 34/1/46 35/4/47 36/3/48 37/2/49 
s 2
f 37/2/50 37/6/51 38/5/52 34/1/53 
f 39/7/54 40/10/55 41/9/56 42/8/57 
s 1
f 43/11/58 44/14/59 45/13/60 46/12/61 
s 2
f 47/15/62 48/18/63 49/17/64 50/16/65 
s 1
f 50/16/66 41/9/67 36/20/48 35/19/47 
f 43/11/58 46/12/61 37/6/68 37/2/49 
f 43/11/58 37/2/49 36/3/48 
f 40/10/69 51/23/70 44/22/59 43/21/58 
f 35/4/47 34/1/46 52/25/71 53/24/72 
s 2
f 38/5/52 37/6/51 46/12/73 
f 45/13/74 38/5/52 46/12/73 
f 38/5/52 52/25/75 34/1/53 
s 1
f 40/10/69 43/21/58 36/20/48 41/9/67 
f 50/16/66 35/19/47 53/26/72 47/15/76 
s 2
f 49/17/64 42/8/57 41/9/56 50/16/65 
f 39/7/54 54/27/77 51/23/78 40/10/55 
s 1
f 55/1/79 56/2/80 57/3/81 58/4/82 
s 2
f 56/2/83 55/1/84 38/5/52 56/6/85 
f 59/7/86 60/8/87 61/9/88 62/10/89 
s 1
f 63/11/90 64/12/91 45/13/60 44/14/59 
s 2
f 47/15/62 65/16/92 66/17/93 48/18/63 
s 1
f 65/16/94 58/19/82 57/20/81 61/9/95 
f 63/11/90 57/3/81 56/2/80 56/6/96 
f 63/11/90 56/6/96 64/12/91 
f 62/10/97 63/21/90 44/22/59 51/23/70 
f 58/4/82 53/24/72 52/25/71 55/1/79 
s 2
f 38/5/52 64/12/98 56/6/85 
f 45/13/74 64/12/98 38/5/52 
f 38/5/52 55/1/84 52/25/75 
s 1
f 62/10/97 61/9/95 57/20/81 63/21/90 
f 65/16/94 47/15/76 53/26/72 58/19/82 
s 2
f 66/17/93 65/16/92 61/9/88 60/8/87 
f 59/7/86 62/10/89 51/23/78 54/27/77 
s 4
f 67/28/99 68/29/99 69/30/99 70/31/99 
s 16
f 71/32/100 72/33/100 73/34/100 74/35/100 
s 64
f 75/36/101 76/37/101 77/38/101 78/39/101 
s 4
f 79/40/99 80/41/99 81/42/99 82/43/99 
s 64
f 83/38/101 76/37/101 75/36/101 84/39/101 
s off
f 85/44/102 86/45/102 74/46/102 84/47/102 
f 87/48/103 85/44/103 84/47/103 75/49/103 
f 88/50/99 87/48/99 75/49/99 71/51/99 
f 86/45/99 88/50/99 71/51/99 74/46/99 
f 89/52/99 90/53/99 75/49/99 78/54/99 
f 91/55/99 89/52/99 78/54/99 92/56/99 
f 93/57/99 91/55/99 92/56/99 71/51/99 
f 90/53/99 93/57/99 71/51/99 75/49/99 
f 69/58/104 68/59/104 94/60/104 95/61/104 
f 70/62/105 69/63/105 95/64/105 96/65/105 
f 67/58/106 70/59/106 96/60/106 97/61/106 
f 68/66/107 67/67/107 97/68/107 94/69/107 
f 81/70/105 80/71/105 98/72/105 99/73/105 
f 82/74/106 81/75/106 99/76/106 100/77/106 
f 79/78/107 82/79/107 100/80/107 101/81/107 
f 80/82/108 79/83/108 101/84/108 98/85/108 
f 85/86/109 95/87/109 94/88/109 86/89/109 
f 87/90/110 96/91/110 95/92/110 85/93/110 
f 88/90/111 97/94/111 96/95/111 87/93/111 
f 86/86/112 94/96/112 97/97/112 88/89/112 
f 89/90/110 99/98/110 98/99/110 90/93/110 
f 91/90/111 100/94/111 99/95/111 89/93/111 
f 93/86/112 101/100/112 100/101/112 91/89/112 
f 90/86/113 98/87/113 101/88/113 93/89/113 
s 32
f 84/102/114 74/103/114 73/104/114 83/105/114 
s 4
f 102/28/115 103/31/115 104/30/115 105/29/115 
f 106/40/115 107/43/115 108/42/115 109/41/115 
s 16
f 72/33/100 71/32/100 92/106/100 110/107/100 
s off
f 111/44/116 83/47/116 73/46/116 112/45/116 
f 113/48/117 76/49/117 83/47/117 111/44/117 
f 114/50/116 72/51/116 76/49/116 113/48/116 
f 112/45/115 73/46/115 72/51/115 114/50/115 
f 115/52/115 77/54/115 76/49/115 116/53/115 
f 117/55/115 110/56/115 77/54/115 115/52/115 
f 118/57/115 72/51/115 110/56/115 117/55/115 
f 116/53/115 76/49/115 72/51/115 118/57/115 
f 104/58/118 119/61/118 120/60/118 105/59/118 
f 103/62/119 121/65/119 119/64/119 104/63/119 
f 102/58/120 122/61/120 121/60/120 103/59/120 
f 105/66/121 120/69/121 122/68/121 102/67/121 
f 108/70/119 123/73/119 124/72/119 109/71/119 
f 107/74/120 125/77/120 123/76/120 108/75/120 
f 106/78/121 126/81/121 125/80/121 107/79/121 
f 109/82/122 124/85/122 126/84/122 106/83/122 
f 111/86/123 112/89/123 120/88/123 119/87/123 
f 113/90/124 111/93/124 119/92/124 121/91/124 
f 114/90/125 113/93/125 121/95/125 122/94/125 
f 112/86/126 114/89/126 122/97/126 120/96/126 
f 115/90/124 116/93/124 124/99/124 123/98/124 
f 117/90/125 115/93/125 123/95/125 125/94/125 
f 118/86/126 117/89/126 125/101/126 126/100/126 
f 116/86/127 118/89/127 126/88/127 124/87/127 
s 8
f 92/108/128 78/109/128 77/110/128 110/111/128 
# 110 polygons - 16 triangles

