# 3ds Max Wavefront OBJ Exporter v0.97b - (c)2007 guruware
# File Created: 09.02.2014 00:06:38

#
# object Door_C
#

v  14.6100 21.3835 0.3803
v  14.6100 38.3246 0.3803
v  3.7236 38.3246 0.3803
v  3.7236 21.3835 0.3803
v  18.3190 18.4614 0.8777
v  18.3190 18.4614 -0.8777
v  18.3190 41.2467 -0.8777
v  18.3190 41.2467 0.8777
v  0.0146 18.4614 0.8777
v  0.0146 18.4614 -0.8777
v  0.0146 -0.0088 -0.8777
v  0.0146 -0.0088 0.8777
v  14.6100 15.5393 0.3803
v  3.7236 15.5393 0.3803
v  3.7236 2.9133 0.3803
v  14.6100 2.9133 0.3803
v  0.0146 41.2467 -0.8777
v  0.0146 41.2467 0.8777
v  3.0439 39.0581 0.8777
v  15.2896 39.0581 0.8777
v  3.0439 20.6501 0.8777
v  15.2896 20.6501 0.8777
v  3.0439 2.1799 0.8777
v  3.0439 16.2727 0.8777
v  15.2896 2.1799 0.8777
v  18.3190 -0.0088 0.8777
v  15.2896 16.2727 0.8777
v  14.6100 21.3835 -0.3803
v  3.7236 21.3835 -0.3803
v  3.7236 38.3246 -0.3803
v  14.6100 38.3246 -0.3803
v  14.6100 15.5393 -0.3803
v  14.6100 2.9133 -0.3803
v  3.7236 2.9133 -0.3803
v  3.7236 15.5393 -0.3803
v  18.3190 -0.0088 -0.8777
v  3.0439 39.0581 -0.8777
v  15.2896 39.0581 -0.8777
v  3.0439 20.6501 -0.8777
v  15.2896 20.6501 -0.8777
v  3.0439 2.1799 -0.8777
v  3.0439 16.2727 -0.8777
v  15.2896 2.1799 -0.8777
v  15.2896 16.2727 -0.8777
v  16.8119 18.0373 2.4737
v  16.1999 17.7478 2.4737
v  16.1955 18.2484 1.7296
v  16.4934 18.3894 1.7296
v  16.1999 18.7297 3.2076
v  15.4147 17.8847 0.8564
v  16.2018 17.5307 0.8564
v  16.1965 18.1254 1.1867
v  15.8019 18.3028 1.1867
v  15.8821 18.3894 1.7296
v  15.5561 18.0373 2.4737
v  15.2316 18.7297 2.4737
v  15.7242 18.7297 1.7296
v  16.7868 18.7297 1.1867
v  16.5717 18.3028 1.1867
v  16.9501 17.8847 0.8564
v  17.3791 18.7297 0.8564
v  15.6031 18.7297 1.1867
v  16.6642 18.7297 1.7296
v  17.1629 18.7297 2.4737
v  15.0181 18.7297 0.8564
v  16.8119 19.4220 2.4737
v  16.4934 19.0700 1.7296
v  16.1955 19.2109 1.7296
v  16.1999 19.7116 2.4737
v  15.4147 19.5747 0.8564
v  15.8019 19.1565 1.1867
v  16.1965 19.3340 1.1867
v  16.2018 19.9287 0.8564
v  15.8821 19.0700 1.7296
v  15.5561 19.4220 2.4737
v  16.9501 19.5747 0.8564
v  16.5717 19.1565 1.1867
v  16.8119 18.0373 -2.4737
v  16.4934 18.3894 -1.7296
v  16.1955 18.2484 -1.7296
v  16.1999 17.7478 -2.4737
v  16.1999 18.7297 -3.2076
v  15.4147 17.8847 -0.8564
v  15.8019 18.3028 -1.1867
v  16.1965 18.1254 -1.1867
v  16.2018 17.5307 -0.8564
v  15.8821 18.3894 -1.7296
v  15.7242 18.7297 -1.7296
v  15.2316 18.7297 -2.4737
v  15.5561 18.0373 -2.4737
v  16.7868 18.7297 -1.1867
v  17.3791 18.7297 -0.8564
v  16.9501 17.8847 -0.8564
v  16.5717 18.3028 -1.1867
v  15.6031 18.7297 -1.1867
v  17.1629 18.7297 -2.4737
v  16.6642 18.7297 -1.7296
v  15.0181 18.7297 -0.8564
v  16.8119 19.4220 -2.4737
v  16.1999 19.7116 -2.4737
v  16.1955 19.2109 -1.7296
v  16.4934 19.0700 -1.7296
v  15.4147 19.5747 -0.8564
v  16.2018 19.9287 -0.8564
v  16.1965 19.3340 -1.1867
v  15.8019 19.1565 -1.1867
v  15.8821 19.0700 -1.7296
v  15.5561 19.4220 -2.4737
v  16.5717 19.1565 -1.1867
v  16.9501 19.5747 -0.8564
# 110 vertices

vn 0.0000 -0.0000 1.0000
vn 1.0000 0.0000 -0.0000
vn -1.0000 0.0000 -0.0000
vn 0.0000 0.0000 1.0000
vn -0.0000 -0.0000 1.0000
vn 0.0000 -0.5613 0.8276
vn 0.5906 -0.0000 0.8070
vn 0.0000 0.5613 0.8276
vn -0.5906 -0.0000 0.8070
vn 0.0000 1.0000 -0.0000
vn 0.0000 -0.0000 -1.0000
vn 0.0000 0.0000 -1.0000
vn -0.0000 -0.0000 -1.0000
vn 0.0000 -0.5613 -0.8276
vn 0.5906 -0.0000 -0.8070
vn 0.0000 0.5613 -0.8276
vn -0.5906 -0.0000 -0.8070
vn 0.0000 -1.0000 -0.0000
vn 0.5859 -0.6063 -0.5377
vn 0.2330 -0.8062 -0.5439
vn 0.0095 -0.9785 -0.2062
vn 0.6877 -0.6999 -0.1930
vn 0.2725 -0.5760 0.7707
vn 0.4312 -0.4487 0.7828
vn 0.0050 -0.0000 1.0000
vn -0.2600 -0.5781 0.7734
vn -0.3502 -0.3588 0.8652
vn 0.0046 -0.4856 0.8742
vn 0.0073 -0.7524 0.6587
vn -0.5436 -0.5479 0.6358
vn -0.6911 -0.6957 -0.1959
vn -0.5878 -0.6008 -0.5418
vn -0.8344 -0.0000 -0.5511
vn -0.9789 -0.0000 -0.2041
vn 0.7494 0.0000 0.6621
vn 0.5443 -0.5547 0.6293
vn 0.3507 -0.3639 0.8629
vn 0.4871 0.0000 0.8733
vn -0.3500 -0.7781 -0.5216
vn -0.7563 -0.0000 0.6542
vn 0.9782 -0.0000 -0.2079
vn 0.8313 -0.0000 -0.5558
vn -0.4286 -0.4388 0.7898
vn -0.6041 -0.0000 0.7969
vn 0.6062 -0.0000 0.7953
vn -0.4917 -0.0000 0.8708
vn 0.5859 0.6063 -0.5377
vn 0.6877 0.6999 -0.1930
vn 0.0095 0.9785 -0.2062
vn 0.2330 0.8062 -0.5439
vn 0.2725 0.5760 0.7707
vn -0.2600 0.5781 0.7734
vn 0.4312 0.4487 0.7828
vn -0.3502 0.3588 0.8652
vn -0.5436 0.5479 0.6358
vn 0.0073 0.7524 0.6587
vn 0.0046 0.4856 0.8742
vn -0.6911 0.6957 -0.1959
vn -0.5878 0.6008 -0.5418
vn 0.3507 0.3639 0.8629
vn 0.5443 0.5547 0.6293
vn -0.3500 0.7781 -0.5216
vn -0.4286 0.4388 0.7898
vn 0.5859 -0.6063 0.5377
vn 0.6877 -0.6999 0.1930
vn 0.0095 -0.9785 0.2062
vn 0.2330 -0.8062 0.5439
vn 0.2725 -0.5760 -0.7707
vn -0.2600 -0.5781 -0.7734
vn 0.0050 -0.0000 -1.0000
vn 0.4312 -0.4487 -0.7828
vn -0.3502 -0.3588 -0.8652
vn -0.3555 -0.3542 -0.8650
vn 0.0048 -0.4856 -0.8742
vn 0.0046 -0.4856 -0.8742
vn -0.6911 -0.6957 0.1959
vn -0.9789 -0.0000 0.2041
vn -0.8344 -0.0000 0.5511
vn -0.5878 -0.6007 0.5418
vn 0.4879 0.0000 -0.8729
vn 0.4871 0.0000 -0.8733
vn 0.3507 -0.3639 -0.8629
vn 0.3565 -0.3589 -0.8626
vn 0.6818 -0.7007 -0.2104
vn 0.0093 -0.9752 -0.2211
vn -0.3500 -0.7781 0.5216
vn -0.6856 -0.6963 -0.2125
vn -0.9760 0.0000 -0.2177
vn 0.8313 -0.0000 0.5558
vn 0.9782 -0.0000 0.2079
vn -0.4286 -0.4388 -0.7898
vn -0.6041 -0.0000 -0.7969
vn 0.6062 -0.0000 -0.7953
vn 0.9754 0.0000 -0.2203
vn -0.4917 -0.0000 -0.8708
vn -0.4924 -0.0000 -0.8704
vn 0.5859 0.6063 0.5377
vn 0.2330 0.8062 0.5439
vn 0.0095 0.9785 0.2062
vn 0.6877 0.6999 0.1930
vn 0.2725 0.5760 -0.7707
vn 0.4312 0.4487 -0.7828
vn -0.2600 0.5781 -0.7734
vn -0.3502 0.3588 -0.8652
vn 0.0046 0.4856 -0.8742
vn 0.0048 0.4856 -0.8742
vn -0.3555 0.3542 -0.8650
vn -0.6911 0.6957 0.1959
vn -0.5878 0.6007 0.5418
vn 0.3565 0.3589 -0.8626
vn 0.3507 0.3639 -0.8629
vn 0.6818 0.7007 -0.2104
vn 0.0093 0.9752 -0.2211
vn -0.3500 0.7781 0.5216
vn -0.6856 0.6963 -0.2125
vn -0.4286 0.4388 -0.7898
# 116 vertex normals

vt 0.4128 0.9854 0.0000
vt 0.0120 0.9854 0.0000
vt 0.0120 0.7278 0.0000
vt 0.4128 0.7278 0.0000
vt 0.6223 0.5315 0.0000
vt 0.7657 0.5315 0.0000
vt 0.7657 0.9765 0.0000
vt 0.6223 0.9765 0.0000
vt 0.7656 0.5317 0.0000
vt 0.6224 0.5317 0.0000
vt 0.6224 0.9756 0.0000
vt 0.7656 0.9756 0.0000
vt 0.3487 0.6629 0.0000
vt 0.3487 0.9205 0.0000
vt 0.0500 0.9205 0.0000
vt 0.0500 0.6629 0.0000
vt 0.0463 0.6499 0.0000
vt 0.0463 0.9016 0.0000
vt 0.0014 0.9638 0.0000
vt 0.0014 0.5876 0.0000
vt 0.4247 0.6499 0.0000
vt 0.4685 0.5876 0.0000
vt 0.4247 0.9016 0.0000
vt 0.4685 0.9638 0.0000
vt 0.1360 0.6499 0.0000
vt 0.4257 0.6499 0.0000
vt 0.0911 0.5876 0.0000
vt 0.1360 0.9016 0.0000
vt 0.0911 0.9638 0.0000
vt 0.4257 0.9016 0.0000
vt 0.0647 0.0167 0.0000
vt 0.3278 0.0167 0.0000
vt 0.3442 0.0358 0.0000
vt 0.0483 0.0358 0.0000
vt 0.0250 0.0160 0.0000
vt 0.3310 0.0160 0.0000
vt 0.3442 0.0362 0.0000
vt 0.0117 0.0362 0.0000
vt 0.3310 0.0362 0.0000
vt 0.0250 0.0362 0.0000
vt 0.0117 0.0160 0.0000
vt 0.3442 0.0160 0.0000
vt 0.3214 0.0353 0.0000
vt 0.0341 0.0353 0.0000
vt 0.0174 0.0150 0.0000
vt 0.3381 0.0150 0.0000
vt 0.3208 0.0358 0.0000
vt 0.0352 0.0358 0.0000
vt 0.0174 0.0151 0.0000
vt 0.3387 0.0151 0.0000
vt 0.0341 0.0150 0.0000
vt 0.3214 0.0150 0.0000
vt 0.3381 0.0353 0.0000
vt 0.0174 0.0353 0.0000
vt 0.0352 0.0151 0.0000
vt 0.3208 0.0151 0.0000
vt 0.3387 0.0358 0.0000
vt 0.0174 0.0358 0.0000
vt 0.7658 0.5317 0.0000
vt 0.7658 0.9982 0.0000
vt 0.6221 0.9982 0.0000
vt 0.6221 0.5317 0.0000
vt 0.6223 0.9767 0.0000
vt 0.7657 0.9767 0.0000
vt 0.6226 0.9983 0.0000
vt 0.6226 0.5310 0.0000
vt 0.7666 0.5310 0.0000
vt 0.7666 0.9983 0.0000
vt 0.3339 0.2117 0.0000
vt 0.3113 0.2094 0.0000
vt 0.3121 0.1898 0.0000
vt 0.3303 0.1918 0.0000
vt 0.3121 0.2564 0.0000
vt 0.3155 0.2078 0.0000
vt 0.2831 0.1960 0.0000
vt 0.3129 0.1892 0.0000
vt 0.3134 0.2209 0.0000
vt 0.2932 0.2241 0.0000
vt 0.2933 0.1908 0.0000
vt 0.2910 0.2099 0.0000
vt 0.2638 0.2159 0.0000
vt 0.2757 0.1930 0.0000
vt 0.3515 0.2311 0.0000
vt 0.3328 0.2237 0.0000
vt 0.3414 0.1951 0.0000
vt 0.3727 0.2146 0.0000
vt 0.3303 0.2499 0.0000
vt 0.3140 0.2478 0.0000
vt 0.2971 0.2496 0.0000
vt 0.2815 0.2530 0.0000
vt 0.2753 0.2328 0.0000
vt 0.3483 0.1938 0.0000
vt 0.3614 0.2170 0.0000
vt 0.3464 0.2521 0.0000
vt 0.2537 0.2178 0.0000
# 95 texture coords

g Door_C
s 4
f 1/1/1 2/2/1 3/3/1 4/4/1 
s 16
f 5/5/2 6/6/2 7/7/2 8/8/2 
s 64
f 9/9/3 10/10/3 11/11/3 12/12/3 
s 4
f 13/13/1 14/14/1 15/15/1 16/16/1 
s 64
f 17/11/3 10/10/3 9/9/3 18/12/3 
s off
f 19/17/4 20/18/4 8/19/4 18/20/4 
f 21/21/5 19/17/5 18/20/5 9/22/5 
f 22/23/1 21/21/1 9/22/1 5/24/1 
f 20/18/1 22/23/1 5/24/1 8/19/1 
f 23/25/1 24/26/1 9/22/1 12/27/1 
f 25/28/1 23/25/1 12/27/1 26/29/1 
f 27/30/1 25/28/1 26/29/1 5/24/1 
f 24/26/1 27/30/1 5/24/1 9/22/1 
f 3/31/6 2/32/6 20/33/6 19/34/6 
f 4/35/7 3/36/7 19/37/7 21/38/7 
f 1/31/8 4/32/8 21/33/8 22/34/8 
f 2/39/9 1/40/9 22/41/9 20/42/9 
f 15/43/7 14/44/7 24/45/7 23/46/7 
f 16/47/8 15/48/8 23/49/8 25/50/8 
f 13/51/9 16/52/9 25/53/9 27/54/9 
f 14/55/6 13/56/6 27/57/6 24/58/6 
s 32
f 18/59/10 8/60/10 7/61/10 17/62/10 
s 4
f 28/1/11 29/4/11 30/3/11 31/2/11 
f 32/13/11 33/16/11 34/15/11 35/14/11 
s 16
f 6/6/2 5/5/2 26/63/2 36/64/2 
s off
f 37/17/12 17/20/12 7/19/12 38/18/12 
f 39/21/13 10/22/13 17/20/13 37/17/13 
f 40/23/12 6/24/12 10/22/12 39/21/12 
f 38/18/11 7/19/11 6/24/11 40/23/11 
f 41/25/11 11/27/11 10/22/11 42/26/11 
f 43/28/11 36/29/11 11/27/11 41/25/11 
f 44/30/11 6/24/11 36/29/11 43/28/11 
f 42/26/11 10/22/11 6/24/11 44/30/11 
f 30/31/14 37/34/14 38/33/14 31/32/14 
f 29/35/15 39/38/15 37/37/15 30/36/15 
f 28/31/16 40/34/16 39/33/16 29/32/16 
f 31/39/17 38/42/17 40/41/17 28/40/17 
f 34/43/15 41/46/15 42/45/15 35/44/15 
f 33/47/16 43/50/16 41/49/16 34/48/16 
f 32/51/17 44/54/17 43/53/17 33/52/17 
f 35/55/14 42/58/14 44/57/14 32/56/14 
s 8
f 26/65/18 12/66/18 11/67/18 36/68/18 
s 1
f 45/69/19 46/70/20 47/71/21 48/72/22 
s 2
f 46/70/23 45/69/24 49/73/25 46/74/26 
s 1
f 50/75/27 51/76/28 52/77/29 53/78/30 
f 54/79/31 55/80/32 56/81/33 57/82/34 
f 58/83/35 59/84/36 60/85/37 61/86/38 
f 59/84/36 48/87/22 47/88/21 52/77/29 
f 54/79/31 47/71/21 46/70/20 46/74/39 
f 54/79/31 46/74/39 55/80/32 
f 53/78/30 54/89/31 57/90/34 62/91/40 
f 48/72/22 63/92/41 64/93/42 45/69/19 
s 2
f 49/73/25 55/80/43 46/74/26 
f 56/81/44 55/80/43 49/73/25 
f 49/73/25 45/69/24 64/93/45 
s 1
f 53/78/30 52/77/29 47/88/21 54/89/31 
f 59/84/36 58/83/35 63/94/41 48/87/22 
f 60/85/37 59/84/36 52/77/29 51/76/28 
f 50/75/27 53/78/30 62/91/40 65/95/46 
f 66/69/47 67/72/48 68/71/49 69/70/50 
s 2
f 69/70/51 69/74/52 49/73/25 66/69/53 
s 1
f 70/75/54 71/78/55 72/77/56 73/76/57 
f 74/79/58 57/82/34 56/81/33 75/80/59 
f 58/83/35 61/86/38 76/85/60 77/84/61 
f 77/84/61 72/77/56 68/88/49 67/87/48 
f 74/79/58 75/80/59 69/74/62 69/70/50 
f 74/79/58 69/70/50 68/71/49 
f 71/78/55 62/91/40 57/90/34 74/89/58 
f 67/72/48 66/69/47 64/93/42 63/92/41 
s 2
f 49/73/25 69/74/52 75/80/63 
f 56/81/44 49/73/25 75/80/63 
f 49/73/25 64/93/45 66/69/53 
s 1
f 71/78/55 74/89/58 68/88/49 72/77/56 
f 77/84/61 67/87/48 63/94/41 58/83/35 
f 76/85/60 73/76/57 72/77/56 77/84/61 
f 70/75/54 65/95/46 62/91/40 71/78/55 
f 78/69/64 79/72/65 80/71/66 81/70/67 
s 2
f 81/70/68 81/74/69 82/73/70 78/69/71 
f 83/75/72 84/78/73 85/77/74 86/76/75 
s 1
f 87/79/76 88/82/77 89/81/78 90/80/79 
s 2
f 91/83/80 92/86/81 93/85/82 94/84/83 
s 1
f 94/84/84 85/77/85 80/88/66 79/87/65 
f 87/79/76 90/80/79 81/74/86 81/70/67 
f 87/79/76 81/70/67 80/71/66 
f 84/78/87 95/91/88 88/90/77 87/89/76 
f 79/72/65 78/69/64 96/93/89 97/92/90 
s 2
f 82/73/70 81/74/69 90/80/91 
f 89/81/92 82/73/70 90/80/91 
f 82/73/70 96/93/93 78/69/71 
s 1
f 84/78/87 87/89/76 80/88/66 85/77/85 
f 94/84/84 79/87/65 97/94/90 91/83/94 
s 2
f 93/85/82 86/76/75 85/77/74 94/84/83 
f 83/75/72 98/95/95 95/91/96 84/78/73 
s 1
f 99/69/97 100/70/98 101/71/99 102/72/100 
s 2
f 100/70/101 99/69/102 82/73/70 100/74/103 
f 103/75/104 104/76/105 105/77/106 106/78/107 
s 1
f 107/79/108 108/80/109 89/81/78 88/82/77 
s 2
f 91/83/80 109/84/110 110/85/111 92/86/81 
s 1
f 109/84/112 102/87/100 101/88/99 105/77/113 
f 107/79/108 101/71/99 100/70/98 100/74/114 
f 107/79/108 100/74/114 108/80/109 
f 106/78/115 107/89/108 88/90/77 95/91/88 
f 102/72/100 97/92/90 96/93/89 99/69/97 
s 2
f 82/73/70 108/80/116 100/74/103 
f 89/81/92 108/80/116 82/73/70 
f 82/73/70 99/69/102 96/93/93 
s 1
f 106/78/115 105/77/113 101/88/99 107/89/108 
f 109/84/112 91/83/94 97/94/90 102/87/100 
s 2
f 110/85/111 109/84/110 105/77/106 104/76/105 
f 103/75/104 106/78/107 95/91/96 98/95/95 
# 94 polygons - 16 triangles

