# 3ds Max Wavefront OBJ Exporter v0.97b - (c)2007 guruware
# File Created: 09.02.2014 00:12:51

#
# object Letter
#

v  -2.2005 1.4398 0.0098
v  -2.2005 -1.4398 0.0098
v  2.2005 -1.4398 0.0098
v  2.2005 1.4398 0.0098
v  -2.2005 1.4398 -0.0098
v  2.2005 1.4398 -0.0098
v  2.2005 -1.4398 -0.0098
v  -2.2005 -1.4398 -0.0098
# 8 vertices

vn 0.0000 0.0000 1.0000
vn -0.0000 0.0000 -1.0000
# 2 vertex normals

vt 0.5092 0.4327 0.0000
vt 0.5681 0.4327 0.0000
vt 0.5681 0.5285 0.0000
vt 0.5092 0.5285 0.0000
vt 0.4492 0.4327 0.0000
vt 0.4492 0.5285 0.0000
vt 0.5081 0.5285 0.0000
vt 0.5081 0.4327 0.0000
# 8 texture coords

g Letter
s 1
f 1/1/1 2/2/1 3/3/1 4/4/1 
f 5/5/2 6/6/2 7/7/2 8/8/2 
# 2 polygons

