# 3ds Max Wavefront OBJ Exporter v0.97b - (c)2007 guruware
# File Created: 09.02.2014 00:16:14

#
# object Log_stack_B
#

v  -2.0341 1.9765 0.0125
v  -1.7524 1.9007 -6.6760
v  -0.6726 2.9833 -6.6760
v  -0.9968 2.8394 0.0125
v  -0.9722 4.7257 -6.6760
v  -1.2254 4.1692 0.0125
v  -2.3517 5.3855 -6.6760
v  -2.4914 4.6361 0.0125
v  -3.4315 4.3029 -6.6760
v  -3.5287 3.7732 0.0125
v  -3.1319 2.5604 -6.6760
v  -3.3001 2.4434 0.0125
v  -2.0590 5.3159 6.7010
v  -3.3273 4.2608 6.7010
v  -3.0477 2.6349 6.7010
v  -0.2316 3.1191 6.7010
v  -1.4999 2.0640 6.7010
v  -0.5111 4.7451 6.7010
v  -2.9867 0.5334 -0.9753
v  -2.7433 0.7259 5.9944
v  -4.2777 0.4174 5.9054
v  -4.4714 0.3040 -1.0635
v  -5.1776 1.5424 5.8129
v  -5.4095 1.4768 -1.1600
v  -4.5431 2.9759 5.8093
v  -4.8629 2.8789 -1.1682
v  -3.0087 3.2844 5.8983
v  -3.3782 3.1083 -1.0800
v  -2.1088 2.1593 5.9908
v  -2.4401 1.9355 -0.9836
v  -3.8463 2.9011 -8.0637
v  -2.0309 3.1815 -7.9559
v  -0.8839 1.7476 -7.8379
v  -3.3676 -0.2472 -7.9357
v  -1.5522 0.0332 -7.8279
v  -4.5146 1.1867 -8.0536
v  3.3906 6.1670 0.0125
v  3.1258 6.2895 -4.3524
v  1.8781 5.4055 -4.3524
v  2.2220 5.4924 0.0125
v  1.8781 3.6375 -4.3524
v  2.2220 4.1431 0.0125
v  3.1258 2.7535 -4.3524
v  3.3906 3.4684 0.0125
v  4.3735 3.6375 -4.3524
v  4.5591 4.1431 0.0125
v  4.3735 5.4055 -4.3524
v  4.5591 5.4924 0.0125
v  2.8492 2.8717 4.3774
v  4.2780 3.6966 4.3774
v  4.2780 5.3464 4.3774
v  1.4204 5.3464 4.3774
v  2.8492 6.1713 4.3774
v  1.4204 3.6966 4.3774
v  4.6484 1.1861 0.6479
v  4.4074 0.6286 -5.4664
v  5.2290 1.7381 -5.4664
v  5.3883 2.2857 0.6479
v  4.6703 2.8803 -5.4664
v  4.8059 3.4763 0.6479
v  3.2901 2.9128 -5.4664
v  3.4837 3.5673 0.6479
v  2.4685 1.8033 -5.4664
v  2.7438 2.4677 0.6479
v  3.0271 0.6611 -5.4664
v  3.3261 1.2771 0.6479
v  3.0808 3.1991 6.7621
v  2.1761 1.8546 6.7621
v  2.8881 0.3989 6.7621
v  5.4095 1.6321 6.7621
v  4.5048 0.2876 6.7621
v  4.6975 3.0878 6.7621
v  1.4141 5.9559 -1.2269
v  1.9939 6.8348 5.2652
v  2.2038 5.0337 5.2733
v  1.5377 4.2196 -1.2132
v  0.8247 4.0993 5.3895
v  0.1000 3.2456 -1.0920
v  -0.7644 4.9661 5.4977
v  -1.4613 4.0079 -0.9845
v  -0.9743 6.7673 5.4896
v  -1.5849 5.7442 -0.9983
v  0.4048 7.7016 5.3733
v  -0.1472 6.7182 -1.1195
v  -2.1691 4.6045 -7.4866
v  -2.3202 6.7275 -7.5034
v  -0.5624 7.9184 -7.6515
v  1.4977 4.8633 -7.7661
v  1.3466 6.9863 -7.7829
v  -0.2601 3.6724 -7.6179
v  0.5022 3.0516 1.9495
v  1.0698 3.5375 -4.1648
v  -0.4377 2.7555 -4.1648
v  -0.9098 2.2365 1.9494
v  -0.4377 1.1915 -4.1648
v  -0.9098 0.6061 1.9494
v  1.0698 0.4094 -4.1648
v  0.5022 -0.2091 1.9495
v  2.5774 1.1915 -4.1648
v  1.9141 0.6061 1.9495
v  2.5774 2.7555 -4.1648
v  1.9141 2.2365 1.9495
v  1.1464 -0.0200 8.0637
v  2.8728 0.9767 8.0637
v  2.8728 2.9702 8.0637
v  -0.5799 2.9702 8.0637
v  1.1464 3.9669 8.0637
v  -0.5799 0.9767 8.0637
# 108 vertices

vn 0.1538 -0.9881 0.0046
vn 0.1894 -0.9819 0.0094
vn 0.9534 -0.2976 0.0488
vn 0.9311 -0.3637 -0.0270
vn 0.7876 0.6109 0.0806
vn 0.7747 0.6320 -0.0232
vn -0.1606 0.9823 0.0966
vn -0.1925 0.9813 0.0042
vn -0.9439 0.3295 0.0220
vn -0.9466 0.3223 0.0084
vn -0.7970 -0.6032 -0.0306
vn -0.7713 -0.6364 0.0134
vn 0.0000 -0.0000 -1.0000
vn 0.0000 0.0000 -1.0000
vn -0.0000 0.0000 1.0000
vn -0.0000 -0.0000 1.0000
vn 0.9420 -0.3221 -0.0943
vn 0.1947 -0.9809 -0.0027
vn 0.7620 0.6331 -0.1359
vn -0.1446 0.9853 -0.0908
vn -0.9293 0.3694 0.0011
vn -0.7675 -0.6393 0.0473
vn 0.6018 -0.7936 0.0892
vn 0.6451 -0.7641 -0.0064
vn -0.3176 -0.9478 0.0294
vn -0.3930 -0.9194 0.0180
vn -0.9898 -0.1382 0.0342
vn -0.9890 -0.1418 -0.0415
vn -0.6110 0.7915 0.0125
vn -0.6452 0.7630 -0.0395
vn 0.3807 0.9239 -0.0389
vn 0.3284 0.9444 0.0166
vn 0.9912 0.1218 -0.0510
vn 0.9838 0.1576 0.0856
vn -0.0640 0.0308 0.9975
vn 0.0640 -0.0308 -0.9975
vn -0.3327 -0.9428 0.0222
vn 0.6303 -0.7535 0.1869
vn -0.9796 -0.1607 -0.1204
vn -0.6001 0.7953 -0.0859
vn 0.3858 0.9186 0.0854
vn 0.9651 0.1494 0.2150
vn 0.0244 0.9997 0.0085
vn -0.0307 0.9994 0.0163
vn -0.8890 0.4520 0.0737
vn -0.8501 0.5250 -0.0409
vn -0.8730 -0.4719 0.1234
vn -0.8727 -0.4868 -0.0368
vn -0.0121 -0.9889 0.1483
vn 0.0364 -0.9993 0.0075
vn 0.8667 -0.4976 0.0349
vn 0.8846 -0.4663 0.0128
vn 0.8871 0.4593 -0.0469
vn 0.8689 0.4947 0.0197
vn -0.8739 0.4640 -0.1450
vn -0.0392 0.9992 -0.0058
vn -0.8480 -0.4885 -0.2057
vn -0.0362 -0.9895 -0.1398
vn 0.8462 -0.5328 0.0000
vn 0.8632 0.4996 0.0723
vn 0.4616 -0.8867 -0.0260
vn 0.4163 -0.9064 0.0712
vn 0.9928 -0.1183 -0.0205
vn 0.9992 -0.0374 -0.0148
vn 0.5468 0.8320 -0.0932
vn 0.5497 0.8352 -0.0175
vn -0.4556 0.8869 -0.0760
vn -0.4153 0.9093 -0.0255
vn -0.9981 0.0519 0.0347
vn -0.9943 0.1039 -0.0246
vn -0.5327 -0.8391 0.1106
vn -0.5618 -0.8268 -0.0273
vn 0.9947 -0.1020 -0.0144
vn 0.4131 -0.9023 -0.1229
vn 0.5628 0.8242 0.0624
vn -0.4638 0.8857 0.0228
vn -0.9954 0.0362 -0.0888
vn -0.5463 -0.8227 -0.1573
vn 0.8448 0.5337 -0.0386
vn 0.7992 0.5805 -0.1560
vn 0.9215 -0.3863 -0.0399
vn 0.8807 -0.4718 -0.0420
vn 0.0712 -0.9899 0.1224
vn 0.0603 -0.9977 0.0301
vn -0.8286 -0.5356 0.1629
vn -0.8047 -0.5853 0.0997
vn -0.8880 0.4596 0.0165
vn -0.9124 0.3984 0.0939
vn -0.0534 0.9880 -0.1451
vn -0.0740 0.9969 0.0259
vn 0.0751 0.0132 0.9971
vn -0.0751 -0.0132 -0.9971
vn 0.9153 -0.4003 -0.0449
vn 0.8103 0.5801 0.0828
vn 0.0734 -0.9949 -0.0691
vn -0.8461 -0.5313 0.0433
vn -0.8655 0.4714 0.1691
vn -0.0481 0.9819 0.1834
vn -0.0310 0.9990 -0.0320
vn 0.0296 0.9957 0.0878
vn -0.8363 0.5477 -0.0243
vn -0.8844 0.4663 -0.0180
vn -0.8563 -0.5036 -0.1143
vn -0.8596 -0.5105 -0.0213
vn 0.0243 -0.9954 -0.0931
vn -0.0323 -0.9990 -0.0312
vn 0.8776 -0.4774 0.0441
vn 0.8429 -0.5371 -0.0304
vn 0.8441 0.5188 0.1356
vn 0.8683 0.4949 -0.0335
vn -0.8446 0.5351 -0.0187
vn 0.0305 0.9880 -0.1511
vn -0.8676 -0.4913 0.0766
vn 0.0338 -0.9991 0.0273
vn 0.8796 -0.4628 -0.1099
vn 0.8462 0.4969 -0.1923
# 116 vertex normals

vt 0.0458 0.2725 0.0000
vt 0.0458 0.3248 0.0000
vt 0.0037 0.3248 0.0000
vt 0.0037 0.2725 0.0000
vt 0.0036 0.2725 0.0000
vt 0.0036 0.2202 0.0000
vt 0.0457 0.2202 0.0000
vt 0.0457 0.2725 0.0000
vt 0.0879 0.2202 0.0000
vt 0.0879 0.2725 0.0000
vt 0.1300 0.2202 0.0000
vt 0.1300 0.2725 0.0000
vt 0.1301 0.2725 0.0000
vt 0.1301 0.3248 0.0000
vt 0.0880 0.3248 0.0000
vt 0.0880 0.2725 0.0000
vt 0.1728 0.2339 -0.2500
vt 0.1738 0.2718 -0.2500
vt 0.2087 0.2886 -0.2500
vt 0.2425 0.2337 -0.2500
vt 0.2445 0.2713 -0.2500
vt 0.2075 0.2206 -0.2500
vt 0.2075 0.2206 0.2500
vt 0.2425 0.2337 0.2500
vt 0.2445 0.2713 0.2500
vt 0.1738 0.2718 0.2500
vt 0.2087 0.2886 0.2500
vt 0.1728 0.2339 0.2500
vt 0.0037 0.2202 0.0000
vt 0.0458 0.2202 0.0000
vt 0.0457 0.3248 0.0000
vt 0.0036 0.3248 0.0000
vt 0.0879 0.3248 0.0000
vt 0.1300 0.3248 0.0000
vt 0.0880 0.2202 0.0000
vt 0.1301 0.2202 0.0000
# 36 texture coords

g Log_stack_B
s 8
f 1/1/1 2/2/2 3/3/3 4/4/4 
f 4/5/4 3/6/3 5/7/5 6/8/6 
f 6/8/6 5/7/5 7/9/7 8/10/8 
f 8/10/8 7/9/7 9/11/9 10/12/10 
f 10/13/10 9/14/9 11/15/11 12/16/12 
f 12/16/12 11/15/11 2/2/2 1/1/1 
s 1
f 5/17/13 3/18/13 2/19/13 9/20/13 
f 2/19/13 11/21/14 9/20/13 
f 5/17/13 9/20/13 7/22/14 
f 13/23/15 14/24/15 15/25/15 16/26/16 
f 15/25/15 17/27/16 16/26/16 
f 13/23/15 16/26/16 18/28/16 
s 8
f 1/1/1 4/4/4 16/29/17 17/30/18 
f 4/5/4 6/8/6 18/31/19 16/32/17 
f 6/8/6 8/10/8 13/33/20 18/31/19 
f 8/10/8 10/12/10 14/34/21 13/33/20 
f 10/13/10 12/16/12 15/35/22 14/36/21 
f 12/16/12 1/1/1 17/30/18 15/35/22 
f 19/1/23 20/2/24 21/3/25 22/4/26 
f 22/5/26 21/6/25 23/7/27 24/8/28 
f 24/8/28 23/7/27 25/9/29 26/10/30 
f 26/10/30 25/9/29 27/11/31 28/12/32 
f 28/13/32 27/14/31 29/15/33 30/16/34 
f 30/16/34 29/15/33 20/2/24 19/1/23 
s 1
f 23/17/35 21/18/35 20/19/35 27/20/35 
f 20/19/35 29/21/35 27/20/35 
f 23/17/35 27/20/35 25/22/35 
f 31/23/36 32/24/36 33/25/36 34/26/36 
f 33/25/36 35/27/36 34/26/36 
f 31/23/36 34/26/36 36/28/36 
s 8
f 19/1/23 22/4/26 34/29/37 35/30/38 
f 22/5/26 24/8/28 36/31/39 34/32/37 
f 24/8/28 26/10/30 31/33/40 36/31/39 
f 26/10/30 28/12/32 32/34/41 31/33/40 
f 28/13/32 30/16/34 33/35/42 32/36/41 
f 30/16/34 19/1/23 35/30/38 33/35/42 
f 37/1/43 38/2/44 39/3/45 40/4/46 
f 40/5/46 39/6/45 41/7/47 42/8/48 
f 42/8/48 41/7/47 43/9/49 44/10/50 
f 44/10/50 43/9/49 45/11/51 46/12/52 
f 46/13/52 45/14/51 47/15/53 48/16/54 
f 48/16/54 47/15/53 38/2/44 37/1/43 
s 1
f 41/17/14 39/18/14 38/19/14 45/20/14 
f 38/19/14 47/21/14 45/20/14 
f 41/17/14 45/20/14 43/22/14 
f 49/23/16 50/24/15 51/25/16 52/26/16 
f 51/25/16 53/27/16 52/26/16 
f 49/23/16 52/26/16 54/28/15 
s 8
f 37/1/43 40/4/46 52/29/55 53/30/56 
f 40/5/46 42/8/48 54/31/57 52/32/55 
f 42/8/48 44/10/50 49/33/58 54/31/57 
f 44/10/50 46/12/52 50/34/59 49/33/58 
f 46/13/52 48/16/54 51/35/60 50/36/59 
f 48/16/54 37/1/43 53/30/56 51/35/60 
f 55/1/61 56/2/62 57/3/63 58/4/64 
f 58/5/64 57/6/63 59/7/65 60/8/66 
f 60/8/66 59/7/65 61/9/67 62/10/68 
f 62/10/68 61/9/67 63/11/69 64/12/70 
f 64/13/70 63/14/69 65/15/71 66/16/72 
f 66/16/72 65/15/71 56/2/62 55/1/61 
s 1
f 59/17/14 57/18/14 56/19/14 63/20/13 
f 56/19/14 65/21/13 63/20/13 
f 59/17/14 63/20/13 61/22/13 
f 67/23/16 68/24/15 69/25/15 70/26/15 
f 69/25/15 71/27/15 70/26/15 
f 67/23/16 70/26/15 72/28/16 
s 8
f 55/1/61 58/4/64 70/29/73 71/30/74 
f 58/5/64 60/8/66 72/31/75 70/32/73 
f 60/8/66 62/10/68 67/33/76 72/31/75 
f 62/10/68 64/12/70 68/34/77 67/33/76 
f 64/13/70 66/16/72 69/35/78 68/36/77 
f 66/16/72 55/1/61 71/30/74 69/35/78 
f 73/1/79 74/2/80 75/3/81 76/4/82 
f 76/5/82 75/6/81 77/7/83 78/8/84 
f 78/8/84 77/7/83 79/9/85 80/10/86 
f 80/10/86 79/9/85 81/11/87 82/12/88 
f 82/13/88 81/14/87 83/15/89 84/16/90 
f 84/16/90 83/15/89 74/2/80 73/1/79 
s 1
f 77/17/91 75/18/91 74/19/91 81/20/91 
f 74/19/91 83/21/91 81/20/91 
f 77/17/91 81/20/91 79/22/91 
f 85/23/92 86/24/92 87/25/92 88/26/92 
f 87/25/92 89/27/92 88/26/92 
f 85/23/92 88/26/92 90/28/92 
s 8
f 73/1/79 76/4/82 88/29/93 89/30/94 
f 76/5/82 78/8/84 90/31/95 88/32/93 
f 78/8/84 80/10/86 85/33/96 90/31/95 
f 80/10/86 82/12/88 86/34/97 85/33/96 
f 82/13/88 84/16/90 87/35/98 86/36/97 
f 84/16/90 73/1/79 89/30/94 87/35/98 
f 91/1/99 92/2/100 93/3/101 94/4/102 
f 94/5/102 93/6/101 95/7/103 96/8/104 
f 96/8/104 95/7/103 97/9/105 98/10/106 
f 98/10/106 97/9/105 99/11/107 100/12/108 
f 100/13/108 99/14/107 101/15/109 102/16/110 
f 102/16/110 101/15/109 92/2/100 91/1/99 
s 1
f 95/17/14 93/18/14 92/19/14 99/20/14 
f 92/19/14 101/21/14 99/20/14 
f 95/17/14 99/20/14 97/22/14 
f 103/23/16 104/24/16 105/25/16 106/26/16 
f 105/25/16 107/27/15 106/26/16 
f 103/23/16 106/26/16 108/28/16 
s 8
f 91/1/99 94/4/102 106/29/111 107/30/112 
f 94/5/102 96/8/104 108/31/113 106/32/111 
f 96/8/104 98/10/106 103/33/114 108/31/113 
f 98/10/106 100/12/108 104/34/115 103/33/114 
f 100/13/108 102/16/110 105/35/116 104/36/115 
f 102/16/110 91/1/99 107/30/112 105/35/116 
# 84 polygons - 24 triangles

