# 3ds Max Wavefront OBJ Exporter v0.97b - (c)2007 guruware
# File Created: 09.02.2014 00:45:11

#
# object Purse
#

v  -0.3677 2.6304 0.1963
v  -0.1061 2.6304 -0.1637
v  -0.0696 2.8582 -0.1714
v  -0.3477 2.7302 0.1516
v  -0.2870 2.6304 -0.5703
v  -0.2176 3.1142 -0.5040
v  -0.7296 2.6304 -0.6169
v  -0.6437 3.2422 -0.5137
v  -0.9912 2.6304 -0.2569
v  -0.9218 3.1142 -0.1907
v  -0.8103 2.6304 0.1497
v  -0.7738 2.8582 0.1419
v  0.6198 -0.0001 -1.3783
v  1.3782 -0.0001 0.2249
v  0.5610 -0.0001 1.3492
v  -1.3864 -0.0001 -0.0662
v  -0.8213 -0.0001 1.2037
v  -0.5691 -0.0001 -1.1905
v  0.2959 3.4213 0.5805
v  -0.1839 3.1556 1.0122
v  0.2314 1.5619 1.3146
v  1.2438 1.5619 -0.0783
v  0.2638 3.9528 0.3658
v  0.4813 1.9054 -1.5711
v  -0.6210 4.1218 0.4940
v  -0.7875 1.9054 -1.7367
v  -0.9666 3.8561 1.0415
v  -1.8000 1.9054 -0.3438
v  -0.8911 3.4213 1.2312
v  -1.0999 1.9054 1.2295
v  1.9234 0.3821 0.2889
v  0.7863 0.3821 1.8533
v  0.9194 0.3821 -1.8533
v  -0.7863 0.3821 -1.6807
v  -1.9234 0.3821 -0.1162
v  -1.1371 0.3821 1.6508
v  -0.4271 3.2261 -0.0269
# 37 vertices

vn 0.2770 0.3137 0.9082
vn 0.9872 -0.1269 0.0970
vn 0.9800 -0.1473 -0.1337
vn 0.4222 0.2481 0.8719
vn 0.5294 0.0524 -0.8468
vn 0.4564 0.0429 -0.8887
vn -0.4098 0.2025 -0.8894
vn -0.3793 0.1959 -0.9043
vn -0.9771 0.1726 -0.1242
vn -0.9594 0.1751 -0.2210
vn -0.5784 0.1545 0.8010
vn -0.6343 0.0955 0.7671
vn 0.1808 -0.9205 -0.3465
vn 0.3842 -0.9227 0.0329
vn 0.1553 -0.9239 0.3496
vn -0.3864 -0.9213 -0.0427
vn -0.2281 -0.9230 0.3100
vn -0.2071 -0.9274 -0.3116
vn 0.2562 -0.8847 0.3895
vn 0.9016 -0.4010 -0.1623
vn 0.8886 -0.4484 -0.0968
vn 0.1544 -0.9041 0.3984
vn 0.6160 0.7842 0.0752
vn 0.2990 0.8004 0.5196
vn 0.3656 0.6194 0.6947
vn 0.7892 0.6124 0.0462
vn 0.5656 0.4661 -0.6804
vn 0.5608 0.4301 -0.7075
vn 0.3471 0.8488 -0.3989
vn 0.4622 0.5599 -0.6876
vn -0.2075 0.7579 -0.6185
vn -0.5391 0.6250 -0.5647
vn -0.3227 0.8004 -0.5051
vn -0.3412 0.4008 -0.8502
vn -0.9272 0.2885 -0.2388
vn -0.9856 0.1132 -0.1258
vn -0.6618 0.7465 -0.0692
vn -0.9108 0.3930 -0.1267
vn -0.6606 -0.6867 0.3034
vn -0.7994 -0.5477 0.2469
vn -0.4235 0.8006 0.4239
vn -0.4586 0.5434 0.7031
vn 0.9770 -0.1696 0.1289
vn 0.4421 -0.1801 0.8787
vn 0.5086 -0.2715 -0.8171
vn -0.4315 -0.4006 -0.8083
vn -0.9243 -0.3760 -0.0664
vn -0.5388 -0.3050 0.7853
vn 0.0624 0.9966 0.0530
vn -0.5887 0.6388 0.4953
vn 0.2080 0.4984 0.8416
vn -0.3668 -0.1477 0.9185
vn 0.6063 -0.2976 0.7375
vn 0.9146 0.1397 0.3795
vn 0.7706 0.6084 0.1898
# 55 vertex normals

vt 0.3130 0.3192 0.1151
vt 0.3130 0.3408 0.1286
vt 0.3068 0.3408 0.1286
vt 0.3068 0.3192 0.1151
vt 0.3130 0.3625 0.1286
vt 0.3068 0.3625 0.1286
vt 0.3130 0.3192 0.1286
vt 0.3130 0.3408 0.1151
vt 0.3068 0.3408 0.1151
vt 0.3068 0.3192 0.1286
vt 0.3131 0.3192 0.1286
vt 0.3131 0.3408 0.1286
vt 0.3070 0.3408 0.1286
vt 0.3070 0.3192 0.1286
vt 0.3131 0.3625 0.1151
vt 0.3070 0.3625 0.1151
vt 0.3677 0.3567 0.0000
vt 0.3692 0.3567 0.0000
vt 0.3699 0.3580 0.0000
vt 0.3677 0.3593 0.0000
vt 0.3692 0.3593 0.0000
vt 0.3669 0.3580 0.0000
vt 0.2824 0.3408 0.3653
vt 0.2824 0.3192 0.3267
vt 0.3448 0.3192 0.4452
vt 0.3448 0.3408 0.4977
vt 0.2824 0.3625 0.3653
vt 0.3448 0.3625 0.4977
vt 0.2824 0.3408 0.3267
vt 0.2824 0.3192 0.3653
vt 0.3448 0.3192 0.4977
vt 0.3448 0.3408 0.4452
vt 0.2824 0.3625 0.3267
vt 0.3448 0.3625 0.4452
vt 0.3630 0.3408 0.5590
vt 0.3630 0.3192 0.5000
vt 0.3705 0.3192 0.4045
vt 0.3705 0.3408 0.4523
vt 0.3630 0.3625 0.5590
vt 0.3705 0.3625 0.4523
vt 0.3630 0.3408 0.5000
vt 0.3630 0.3192 0.5590
vt 0.3705 0.3192 0.4523
vt 0.3705 0.3408 0.4045
vt 0.3630 0.3625 0.5000
vt 0.3705 0.3625 0.4045
vt 0.3444 0.3563 0.0000
vt 0.3444 0.3270 0.0000
vt 0.3704 0.3416 0.0000
# 49 texture coords

g Purse
s 2
f 1/1/1 2/2/2 3/3/3 4/4/4 
f 2/2/2 5/5/5 6/6/6 3/3/3 
f 5/7/5 7/8/7 8/9/8 6/10/6 
f 7/8/7 9/5/9 10/6/10 8/9/8 
f 9/11/9 11/12/11 12/13/12 10/14/10 
f 11/12/11 1/15/1 4/16/4 12/13/12 
s 1
f 13/17/13 14/18/14 15/19/15 16/20/16 
f 15/19/15 17/21/17 16/20/16 
f 13/17/13 16/20/16 18/22/18 
s 256
f 4/4/19 3/3/20 19/23/21 20/24/22 
s 1
f 2/2/23 1/1/24 21/25/25 22/26/26 
s 256
f 3/3/20 6/6/27 23/27/28 19/23/21 
s 1
f 5/5/29 2/2/23 22/26/26 24/28/30 
s 256
f 6/10/27 8/9/31 25/29/32 23/30/28 
s 1
f 7/8/33 5/7/29 24/31/30 26/32/34 
s 256
f 8/9/31 10/6/35 27/27/36 25/29/32 
s 1
f 9/5/37 7/8/33 26/32/34 28/28/38 
s 256
f 10/14/35 12/13/39 29/23/40 27/30/36 
s 1
f 11/12/41 9/11/37 28/31/38 30/26/42 
s 256
f 12/13/39 4/16/19 20/33/22 29/23/40 
s 1
f 1/15/24 11/12/41 30/26/42 21/34/25 
f 31/35/43 32/36/44 15/37/15 14/38/14 
f 33/39/45 31/35/43 14/38/14 13/40/13 
f 34/41/46 33/42/45 13/43/13 18/44/18 
f 35/39/47 34/41/46 18/44/18 16/40/16 
f 36/35/48 35/42/47 16/43/16 17/38/17 
f 32/45/44 36/35/48 17/38/17 15/46/15 
f 31/35/43 22/26/26 21/25/25 32/36/44 
f 33/39/45 24/28/30 22/26/26 31/35/43 
f 34/41/46 26/32/34 24/31/30 33/42/45 
f 35/39/47 28/28/38 26/32/34 34/41/46 
f 36/35/48 30/26/42 28/31/38 35/42/47 
f 32/45/44 21/34/25 30/26/42 36/35/48 
s 4
f 20/47/49 19/48/50 37/49/51 
f 19/47/50 23/48/52 37/49/51 
f 23/47/52 25/48/53 37/49/51 
f 25/47/53 27/48/54 37/49/51 
f 27/47/54 29/48/55 37/49/51 
f 29/47/55 20/48/49 37/49/51 
# 31 polygons - 8 triangles

