# 3ds Max Wavefront OBJ Exporter v0.97b - (c)2007 guruware
# File Created: 09.02.2014 00:07:51

#
# object Wall_door_onesided
#

v  -11.8630 0.0037 1.3115
v  -9.2395 0.0037 1.3115
v  -9.2395 41.3011 1.3115
v  -11.8630 41.3011 1.3115
v  -9.2395 0.0037 -1.3115
v  -9.2395 41.3011 -1.3115
v  -11.8630 0.0037 -1.3115
v  -11.8630 41.3011 -1.3115
v  9.1659 0.0037 1.3115
v  11.7894 0.0037 1.3115
v  11.7894 41.3011 1.3115
v  9.1659 41.3011 1.3115
v  11.7894 0.0037 -1.3115
v  11.7894 41.3011 -1.3115
v  9.1659 0.0037 -1.3115
v  9.1659 41.3011 -1.3115
v  -11.8619 43.8861 1.3115
v  -11.8619 43.8861 -1.3115
v  -11.8619 41.2626 -1.3115
v  -11.8619 41.2626 1.3115
v  11.7854 43.8861 1.3115
v  11.7854 41.2626 1.3115
v  11.7854 41.2626 -1.3115
v  11.7854 43.8861 -1.3115
v  9.2332 41.2989 -0.0316
v  9.2332 -0.0004 -0.0316
v  31.3300 -0.0004 -0.0316
v  31.3300 41.2989 -0.0316
v  -9.2332 41.2989 -0.0316
v  -9.2332 62.6597 -0.0316
v  -31.3300 62.6597 -0.0316
v  -31.3300 41.2989 -0.0316
v  9.2331 62.6597 -0.0316
v  31.3300 62.6597 -0.0316
v  -31.3300 -0.0004 -0.0316
v  -9.2331 -0.0004 -0.0316
# 36 vertices

vn 0.0000 0.0000 1.0000
vn 1.0000 0.0000 -0.0000
vn -1.0000 -0.0000 -0.0000
vn -1.0000 0.0000 -0.0000
vn 1.0000 -0.0000 -0.0000
vn 0.0000 -0.0000 1.0000
vn 0.0000 -1.0000 -0.0000
vn -0.0000 1.0000 -0.0000
# 8 vertex normals

vt 0.0047 0.9989 0.0000
vt 0.0047 0.9276 0.0000
vt 0.9930 0.9276 0.0000
vt 0.9930 0.9989 0.0000
vt 0.6472 0.6591 0.0000
vt 0.6472 0.0000 0.0000
vt 1.0000 0.0000 0.0000
vt 1.0000 0.6591 0.0000
vt 0.3528 0.6591 0.0000
vt 0.3528 1.0000 0.0000
vt 0.0000 1.0000 0.0000
vt 0.0000 0.6591 0.0000
vt 0.6472 1.0000 0.0000
vt 1.0000 1.0000 0.0000
vt 0.0000 0.0000 0.0000
vt 0.3528 0.0000 0.0000
# 16 texture coords

g Wall_door_onesided
s 8
f 1/1/1 2/2/1 3/3/1 4/4/1 
s 16
f 2/1/2 5/2/2 6/3/2 3/4/2 
s 64
f 7/1/3 1/2/3 4/3/3 8/4/3 
s 8
f 9/1/1 10/2/1 11/3/1 12/4/1 
s 16
f 10/1/2 13/2/2 14/3/2 11/4/2 
s 64
f 15/1/3 9/2/3 12/3/3 16/4/3 
s 2
f 17/2/4 18/3/4 19/4/4 20/1/4 
s 4
f 21/1/5 22/2/5 23/3/5 24/4/5 
s 8
f 17/1/6 20/2/1 22/3/6 21/4/6 
s 16
f 20/1/7 19/2/7 23/3/7 22/4/7 
s 64
f 18/1/8 17/2/8 21/3/8 24/4/8 
s 1
f 25/5/6 26/6/6 27/7/6 28/8/6 
f 29/9/6 30/10/6 31/11/6 32/12/6 
f 29/9/6 25/5/6 33/13/6 30/10/6 
f 25/5/6 28/8/6 34/14/6 33/13/6 
f 29/9/6 32/12/6 35/15/6 36/16/6 
# 16 polygons

