# 3ds Max Wavefront OBJ Exporter v0.97b - (c)2007 guruware
# File Created: 09.02.2014 00:08:40

#
# object Wall_corner_onesided
#

v  0.0000 0.0000 62.6601
v  0.0000 0.0000 -0.0000
v  0.0000 62.6601 0.0000
v  0.0000 62.6601 62.6601
v  62.6601 -0.0000 0.0000
v  62.6601 62.6601 0.0000
# 6 vertices

vn 1.0000 -0.0000 -0.0000
vn 0.7071 -0.0000 0.7071
vn -0.0000 -0.0000 1.0000
# 3 vertex normals

vt 0.0000 0.0000 0.0000
vt 1.0000 0.0000 0.0000
vt 1.0000 1.0000 0.0000
vt 0.0000 1.0000 0.0000
# 4 texture coords

g Wall_corner_onesided
s 1
f 1/1/1 2/2/2 3/3/2 4/4/1 
f 2/1/2 5/2/3 6/3/3 3/4/2 
# 2 polygons

