# 3ds Max Wavefront OBJ Exporter v0.97b - (c)2007 guruware
# File Created: 09.02.2014 00:02:41

#
# object Window_C
#

v  6.8953 9.4458 1.5322
v  6.8953 9.4458 -0.0509
v  5.6352 9.4458 -0.0509
v  5.6352 9.4458 1.5322
v  6.8953 -9.4835 -0.0509
v  6.8953 -9.4835 1.5322
v  5.6352 -9.4835 1.5322
v  5.6352 -9.4835 -0.0509
v  -7.4502 10.6718 1.7841
v  -7.4502 10.6718 -0.0797
v  -7.4502 9.4117 -0.0797
v  -7.4502 9.4117 1.7841
v  -0.0028 9.4117 1.7841
v  -0.0028 10.6718 1.7841
v  -0.0028 9.4117 -0.0797
v  -0.0028 10.6718 -0.0797
v  7.4446 10.6718 1.7841
v  7.4446 9.4117 1.7841
v  7.4446 9.4117 -0.0797
v  7.4446 10.6718 -0.0797
v  7.7721 -9.4117 -0.0437
v  7.7721 -9.4117 2.5334
v  7.7721 -10.6718 2.5334
v  7.7721 -10.6718 -0.0437
v  0.0000 -9.4117 2.5334
v  0.0000 -10.6718 2.5334
v  0.0000 -10.6718 -0.0437
v  0.0000 -9.4117 -0.0437
v  -7.7721 -9.4117 -0.0437
v  -7.7721 -10.6718 -0.0437
v  -7.7721 -10.6718 2.5334
v  -7.7721 -9.4117 2.5334
v  6.1946 9.7546 0.5376
v  -6.0141 9.7546 0.5376
v  -6.0141 -9.7681 0.5376
v  6.1946 -9.7681 0.5376
v  0.4024 9.4458 0.9072
v  0.4024 9.4458 0.3912
v  -0.4624 9.4458 0.3912
v  -0.4624 9.4458 0.9072
v  0.4024 -9.4835 0.3912
v  0.4024 -9.4835 0.9072
v  -0.4624 -9.4835 0.9072
v  -0.4624 -9.4835 0.3912
v  -5.9012 3.4664 1.0343
v  -5.9012 3.4664 0.3525
v  -5.9012 2.7090 0.3525
v  -5.9012 2.7090 1.0343
v  0.0211 2.7090 1.0343
v  0.0211 3.4664 1.0343
v  0.0211 2.7090 0.3525
v  0.0211 3.4664 0.3525
v  5.9435 3.4664 1.0343
v  5.9435 2.7090 1.0343
v  5.9435 2.7090 0.3525
v  5.9435 3.4664 0.3525
v  -5.9012 -3.1098 1.0343
v  -5.9012 -3.1098 0.3525
v  -5.9012 -3.8672 0.3525
v  -5.9012 -3.8672 1.0343
v  0.0211 -3.8672 1.0343
v  0.0211 -3.1098 1.0343
v  0.0211 -3.8672 0.3525
v  0.0211 -3.1098 0.3525
v  5.9435 -3.1098 1.0343
v  5.9435 -3.8672 1.0343
v  5.9435 -3.8672 0.3525
v  5.9435 -3.1098 0.3525
v  -5.6669 9.4458 1.5322
v  -5.6669 9.4458 -0.0509
v  -6.9270 9.4458 -0.0509
v  -6.9270 9.4458 1.5322
v  -5.6669 -9.4835 -0.0509
v  -5.6669 -9.4835 1.5322
v  -6.9270 -9.4835 1.5322
v  -6.9270 -9.4835 -0.0509
# 76 vertices

vn -0.0000 1.0000 -0.0000
vn 0.0000 -1.0000 -0.0000
vn 0.0000 0.0000 1.0000
vn -1.0000 -0.0000 -0.0000
vn 0.0000 0.0000 -1.0000
vn 1.0000 0.0000 -0.0000
vn 0.0000 1.0000 -0.0000
vn 0.0000 -0.0000 1.0000
# 8 vertex normals

vt 0.7662 0.5316 0.0000
vt 0.7662 0.9987 0.0000
vt 0.6227 0.9987 0.0000
vt 0.6227 0.5316 0.0000
vt 0.7662 0.7060 0.0000
vt 0.6227 0.7060 0.0000
vt 0.6227 0.8069 0.0000
vt 0.7662 0.8069 0.0000
vt 0.7684 0.5761 0.0000
vt 0.7684 0.4222 0.0000
vt 0.9995 0.4222 0.0000
vt 0.9995 0.5761 0.0000
# 12 texture coords

g Window_C
s 2
f 1/1/1 2/2/1 3/3/1 4/4/1 
s 4
f 5/3/2 6/4/2 7/1/2 8/2/2 
s 8
f 1/4/3 4/1/3 7/2/3 6/3/3 
s 16
f 8/2/4 7/3/4 4/4/4 3/1/4 
s 32
f 3/4/5 2/1/5 5/2/5 8/3/5 
s 64
f 6/2/6 5/3/6 2/4/6 1/1/6 
s 2
f 9/1/4 10/2/4 11/3/4 12/4/4 
s 8
f 9/4/3 12/1/3 13/5/3 14/6/3 
s 16
f 13/6/2 12/4/2 11/1/2 15/5/2 
s 32
f 11/4/5 10/1/5 16/5/5 15/6/5 
s 64
f 16/6/1 10/4/1 9/1/1 14/5/1 
s 2
f 17/1/6 18/4/6 19/3/6 20/2/6 
s 8
f 17/4/3 14/6/3 13/5/3 18/1/3 
s 16
f 13/6/2 15/5/2 19/1/2 18/4/2 
s 32
f 19/4/5 15/6/5 16/5/5 20/1/5 
s 64
f 16/6/1 14/5/1 17/1/1 20/4/1 
s 4
f 21/3/6 22/4/6 23/1/6 24/2/6 
s 8
f 25/7/3 26/8/3 23/2/3 22/3/3 
s 16
f 26/7/2 27/8/2 24/2/2 23/3/2 
s 32
f 27/7/5 28/8/5 21/2/5 24/3/5 
s 64
f 28/7/1 25/8/1 22/2/7 21/3/7 
s 4
f 29/3/4 30/2/4 31/1/4 32/4/4 
s 8
f 25/7/3 32/3/3 31/2/3 26/8/3 
s 16
f 26/7/2 31/3/2 30/2/2 27/8/2 
s 32
f 27/7/5 30/3/5 29/2/5 28/8/5 
s 64
f 28/7/1 29/3/1 32/2/1 25/8/1 
s 1
f 33/9/8 34/10/8 35/11/8 36/12/8 
s 2
f 37/1/1 38/2/1 39/3/1 40/4/1 
s 4
f 41/3/2 42/4/2 43/1/2 44/2/2 
s 8
f 37/4/3 40/1/3 43/2/3 42/3/3 
s 16
f 44/2/4 43/3/4 40/4/4 39/1/4 
s 32
f 39/4/5 38/1/5 41/2/5 44/3/5 
s 64
f 42/2/6 41/3/6 38/4/6 37/1/6 
s 2
f 45/1/4 46/2/4 47/3/4 48/4/4 
s 8
f 45/4/3 48/1/3 49/5/3 50/6/3 
s 16
f 49/6/2 48/4/2 47/1/2 51/5/2 
s 32
f 47/4/5 46/1/5 52/5/5 51/6/5 
s 64
f 52/6/1 46/4/1 45/1/1 50/5/1 
s 2
f 53/1/6 54/4/6 55/3/6 56/2/6 
s 8
f 53/4/3 50/6/3 49/5/3 54/1/3 
s 16
f 49/6/2 51/5/2 55/1/2 54/4/2 
s 32
f 55/4/5 51/6/5 52/5/5 56/1/5 
s 64
f 52/6/1 50/5/1 53/1/1 56/4/1 
s 2
f 57/1/4 58/2/4 59/3/4 60/4/4 
s 8
f 57/4/3 60/1/3 61/5/3 62/6/3 
s 16
f 61/6/2 60/4/2 59/1/2 63/5/2 
s 32
f 59/4/5 58/1/5 64/5/5 63/6/5 
s 64
f 64/6/1 58/4/1 57/1/1 62/5/1 
s 2
f 65/1/6 66/4/6 67/3/6 68/2/6 
s 8
f 65/4/3 62/6/3 61/5/3 66/1/3 
s 16
f 61/6/2 63/5/2 67/1/2 66/4/2 
s 32
f 67/4/5 63/6/5 64/5/5 68/1/5 
s 64
f 64/6/1 62/5/1 65/1/1 68/4/1 
s 2
f 69/1/1 70/2/1 71/3/1 72/4/1 
s 4
f 73/3/2 74/4/2 75/1/2 76/2/2 
s 8
f 69/4/3 72/1/3 75/2/3 74/3/3 
s 16
f 76/2/4 75/3/4 72/4/4 71/1/4 
s 32
f 71/4/5 70/1/5 73/2/5 76/3/5 
s 64
f 74/2/6 73/3/6 70/4/6 69/1/6 
# 59 polygons

