# 3ds Max Wavefront OBJ Exporter v0.97b - (c)2007 guruware
# File Created: 09.02.2014 00:02:53

#
# object Window_B
#

v  6.9118 5.1728 1.5217
v  6.9118 5.1728 -0.0615
v  5.6517 5.1728 -0.0615
v  5.6517 5.1728 1.5217
v  6.9118 -5.2416 -0.0615
v  6.9118 -5.2416 1.5217
v  5.6517 -5.2416 1.5217
v  5.6517 -5.2416 -0.0615
v  -6.9100 6.3988 1.5198
v  -6.9100 6.3988 -0.0656
v  -6.9100 5.1387 -0.0656
v  -6.9100 5.1387 1.5198
v  0.0137 5.1387 1.5198
v  0.0137 6.3988 1.5198
v  0.0137 5.1387 -0.0656
v  0.0137 6.3988 -0.0656
v  6.9055 6.3988 1.5198
v  6.9055 5.1387 1.5198
v  6.9055 5.1387 -0.0656
v  6.9055 6.3988 -0.0656
v  6.9046 -5.1387 -0.0636
v  6.9046 -5.1387 1.5290
v  6.9046 -6.3988 1.5290
v  6.9047 -6.3988 -0.0636
v  0.0165 -5.1387 1.5290
v  0.0165 -6.3988 1.5290
v  0.0165 -6.3988 -0.0636
v  0.0165 -5.1387 -0.0636
v  -6.9118 -5.1387 -0.0636
v  -6.9118 -6.3988 -0.0636
v  -6.9118 -6.3988 1.5290
v  -6.9118 -5.1387 1.5290
v  6.2111 5.4816 0.5270
v  -5.9976 5.4816 0.5270
v  -5.9976 -5.5688 0.5270
v  6.2111 -5.5688 0.5270
v  0.4189 5.5334 0.8966
v  0.4189 5.5334 0.3807
v  -0.4459 5.5334 0.3807
v  -0.4459 5.5334 0.8966
v  0.4189 -5.3841 0.3807
v  0.4189 -5.3841 0.8966
v  -0.4459 -5.3841 0.8966
v  -0.4459 -5.3841 0.3807
v  -5.8847 0.3685 1.0237
v  -5.8847 0.3685 0.3420
v  -5.8847 -0.3888 0.3420
v  -5.8847 -0.3888 1.0237
v  0.0377 -0.3888 1.0237
v  0.0377 0.3685 1.0237
v  0.0377 -0.3888 0.3420
v  0.0377 0.3685 0.3420
v  5.9600 0.3685 1.0237
v  5.9600 -0.3888 1.0237
v  5.9600 -0.3888 0.3420
v  5.9600 0.3685 0.3420
v  -5.6503 5.1728 1.5217
v  -5.6503 5.1728 -0.0615
v  -6.9104 5.1728 -0.0615
v  -6.9104 5.1728 1.5217
v  -5.6503 -5.2416 -0.0615
v  -5.6503 -5.2416 1.5217
v  -6.9104 -5.2416 1.5217
v  -6.9104 -5.2416 -0.0615
# 64 vertices

vn -0.0000 1.0000 -0.0000
vn 0.0000 -1.0000 -0.0000
vn 0.0000 0.0000 1.0000
vn -1.0000 -0.0000 -0.0000
vn -0.0000 0.0000 -1.0000
vn 1.0000 0.0000 -0.0000
vn 0.0000 -0.0000 -1.0000
vn -0.0000 -0.0000 -1.0000
vn 0.0000 0.0000 -1.0000
vn 1.0000 0.0000 0.0000
vn -0.0000 -1.0000 -0.0000
vn 0.0000 -1.0000 0.0000
vn 0.0000 1.0000 0.0000
vn 0.0000 1.0000 -0.0000
vn 0.0000 -0.0000 1.0000
# 15 vertex normals

vt 0.7662 0.5316 0.0000
vt 0.7662 0.9987 0.0000
vt 0.6227 0.9987 0.0000
vt 0.6227 0.5316 0.0000
vt 0.7662 0.7060 0.0000
vt 0.6227 0.7060 0.0000
vt 0.6227 0.8069 0.0000
vt 0.7662 0.8069 0.0000
vt 0.7684 0.5761 0.0000
vt 0.7684 0.4222 0.0000
vt 0.9995 0.4222 0.0000
vt 0.9995 0.5761 0.0000
# 12 texture coords

g Window_B
s 2
f 1/1/1 2/2/1 3/3/1 4/4/1 
s 4
f 5/3/2 6/4/2 7/1/2 8/2/2 
s 8
f 1/4/3 4/1/3 7/2/3 6/3/3 
s 16
f 8/2/4 7/3/4 4/4/4 3/1/4 
s 32
f 3/4/5 2/1/5 5/2/5 8/3/5 
s 64
f 6/2/6 5/3/6 2/4/6 1/1/6 
s 2
f 9/1/4 10/2/4 11/3/4 12/4/4 
s 8
f 9/4/3 12/1/3 13/5/3 14/6/3 
s 16
f 13/6/2 12/4/2 11/1/2 15/5/2 
s 32
f 11/4/7 10/1/7 16/5/8 15/6/9 
s 64
f 16/6/1 10/4/1 9/1/1 14/5/1 
s 2
f 17/1/6 18/4/6 19/3/6 20/2/6 
s 8
f 17/4/3 14/6/3 13/5/3 18/1/3 
s 16
f 13/6/2 15/5/2 19/1/2 18/4/2 
s 32
f 19/4/8 15/6/9 16/5/8 20/1/8 
s 64
f 16/6/1 14/5/1 17/1/1 20/4/1 
s 4
f 21/3/10 22/4/6 23/1/10 24/2/10 
s 8
f 25/7/3 26/8/3 23/2/3 22/3/3 
s 16
f 26/7/11 27/8/11 24/2/12 23/3/12 
s 32
f 27/7/9 28/8/9 21/2/9 24/3/9 
s 64
f 28/7/13 25/8/13 22/2/13 21/3/14 
s 4
f 29/3/4 30/2/4 31/1/4 32/4/4 
s 8
f 25/7/3 32/3/3 31/2/3 26/8/3 
s 16
f 26/7/11 31/3/11 30/2/11 27/8/11 
s 32
f 27/7/9 30/3/9 29/2/9 28/8/9 
s 64
f 28/7/13 29/3/13 32/2/13 25/8/13 
s 1
f 33/9/15 34/10/15 35/11/15 36/12/15 
s 2
f 37/1/1 38/2/1 39/3/1 40/4/1 
s 4
f 41/3/2 42/4/2 43/1/2 44/2/2 
s 8
f 37/4/3 40/1/3 43/2/3 42/3/3 
s 16
f 44/2/4 43/3/4 40/4/4 39/1/4 
s 32
f 39/4/9 38/1/9 41/2/9 44/3/9 
s 64
f 42/2/6 41/3/6 38/4/6 37/1/6 
s 2
f 45/1/4 46/2/4 47/3/4 48/4/4 
s 8
f 45/4/3 48/1/3 49/5/3 50/6/3 
s 16
f 49/6/2 48/4/2 47/1/2 51/5/2 
s 32
f 47/4/9 46/1/9 52/5/9 51/6/9 
s 64
f 52/6/1 46/4/1 45/1/1 50/5/1 
s 2
f 53/1/6 54/4/6 55/3/6 56/2/6 
s 8
f 53/4/3 50/6/3 49/5/3 54/1/3 
s 16
f 49/6/2 51/5/2 55/1/2 54/4/2 
s 32
f 55/4/9 51/6/9 52/5/9 56/1/9 
s 64
f 52/6/1 50/5/1 53/1/1 56/4/1 
s 2
f 57/1/1 58/2/1 59/3/1 60/4/1 
s 4
f 61/3/2 62/4/2 63/1/2 64/2/2 
s 8
f 57/4/3 60/1/3 63/2/3 62/3/3 
s 16
f 64/2/4 63/3/4 60/4/4 59/1/4 
s 32
f 59/4/5 58/1/5 61/2/5 64/3/5 
s 64
f 62/2/6 61/3/6 58/4/6 57/1/6 
# 49 polygons

